<svg xmlns="http://www.w3.org/2000/svg" viewBox="0 0 17 17" height="17" width="17"><title>new-college_11.svg</title><rect fill="none" x="0" y="0" width="17" height="17"></rect><path fill="#ffffff" transform="translate(3 3)" d="M7.9688,10v1h-5V10h2V8.9582A4.4886,4.4886,0,0,1,3.2188.6029l.5.866a3.5,3.5,0,0,0,3.5,6.0621l.5.866a4.4748,4.4748,0,0,1-1.75.571V10ZM4.0679,2.5736a3.3927,3.3927,0,0,0,.2529,2.3179l.814-.47Zm1.75,2.031L6.87,6.4264a3.3949,3.3949,0,0,0-.24-2.29ZM7.6454,3.2613l0-.0006,0,0Zm-.8307.19.6837-.3947A2.496,2.496,0,0,0,5.1337,2.0346,3.87,3.87,0,0,1,6.8147,3.4517Zm-1.43,1.4029-.8112.4684A3.4286,3.4286,0,0,0,6.435,6.6736Zm1.6776-.9685a3.8854,3.8854,0,0,1,.37,2.1835,2.4942,2.4942,0,0,0,.3162-2.58Zm-2.56-1.56L5.5678,4.1716l.8136-.47A3.4258,3.4258,0,0,0,4.5025,2.3264ZM4.14,5.5732l-.686.3961a2.4942,2.4942,0,0,0,2.3921,1.016A3.8854,3.8854,0,0,1,4.14,5.5732Zm-.8332.1915,0,.0006,0,0Zm.5808-.6232a3.87,3.87,0,0,1-.3867-2.1643,2.496,2.496,0,0,0-.2969,2.5591Z" style="stroke-linejoin:round;stroke-miterlimit:4;" stroke="#ffffff" stroke-width="2"></path><path fill="#2b578a" transform="translate(3 3)" d="M7.9688,10v1h-5V10h2V8.9582A4.4886,4.4886,0,0,1,3.2188.6029l.5.866a3.5,3.5,0,0,0,3.5,6.0621l.5.866a4.4748,4.4748,0,0,1-1.75.571V10ZM4.0679,2.5736a3.3927,3.3927,0,0,0,.2529,2.3179l.814-.47Zm1.75,2.031L6.87,6.4264a3.3949,3.3949,0,0,0-.24-2.29ZM7.6454,3.2613l0-.0006,0,0Zm-.8307.19.6837-.3947A2.496,2.496,0,0,0,5.1337,2.0346,3.87,3.87,0,0,1,6.8147,3.4517Zm-1.43,1.4029-.8112.4684A3.4286,3.4286,0,0,0,6.435,6.6736Zm1.6776-.9685a3.8854,3.8854,0,0,1,.37,2.1835,2.4942,2.4942,0,0,0,.3162-2.58Zm-2.56-1.56L5.5678,4.1716l.8136-.47A3.4258,3.4258,0,0,0,4.5025,2.3264ZM4.14,5.5732l-.686.3961a2.4942,2.4942,0,0,0,2.3921,1.016A3.8854,3.8854,0,0,1,4.14,5.5732Zm-.8332.1915,0,.0006,0,0Zm.5808-.6232a3.87,3.87,0,0,1-.3867-2.1643,2.496,2.496,0,0,0-.2969,2.5591Z"></path></svg>