<svg xmlns="http://www.w3.org/2000/svg" viewBox="0 0 21 21" height="21" width="21"><title>new-college_15.svg</title><rect fill="none" x="0" y="0" width="21" height="21"></rect><path fill="#ffffff" transform="translate(3 3)" d="M8,13h2v1H5V13H7V11.9675A5.4922,5.4922,0,0,1,4.75,1.7369l.5.866a4.5,4.5,0,0,0,4.5,7.7942l.5.866A5.4532,5.4532,0,0,1,8,11.964ZM7.1585,6.4085,5.5461,3.6157c-.0267.0181-.0519.0375-.0781.0562a4.8882,4.8882,0,0,0,.3737,3.4968Zm.683.183L9.4539,9.3843c.014-.01.0271-.02.0411-.03a4.9056,4.9056,0,0,0-.34-3.5215ZM6.0951,7.6a4.9056,4.9056,0,0,0,2.88,2.0552c.0153-.0072.0309-.0134.0461-.0208L7.4085,6.8415ZM9.3417,5.148l1.0426-.6019A3.481,3.481,0,0,0,6.8683,3.071,5.32,5.32,0,0,1,9.3417,5.148ZM5.6616,7.85l-1.0458.6038A3.48,3.48,0,0,0,8.1806,9.918,5.3176,5.3176,0,0,1,5.6616,7.85ZM9.5884,5.5829A5.3176,5.3176,0,0,1,10.12,8.7984a3.48,3.48,0,0,0,.5145-3.8193Zm-4.18,1.836a5.32,5.32,0,0,1-.5621-3.1805,3.481,3.481,0,0,0-.48,3.7824Zm.6585-4.0927c-.0293.0132-.0587.0254-.0877.0395L7.5915,6.1585l1.3167-.76A4.8882,4.8882,0,0,0,6.0668,3.3262Z" style="stroke-linejoin:round;stroke-miterlimit:4;" stroke="#ffffff" stroke-width="2"></path><path fill="#2b578a" transform="translate(3 3)" d="M8,13h2v1H5V13H7V11.9675A5.4922,5.4922,0,0,1,4.75,1.7369l.5.866a4.5,4.5,0,0,0,4.5,7.7942l.5.866A5.4532,5.4532,0,0,1,8,11.964ZM7.1585,6.4085,5.5461,3.6157c-.0267.0181-.0519.0375-.0781.0562a4.8882,4.8882,0,0,0,.3737,3.4968Zm.683.183L9.4539,9.3843c.014-.01.0271-.02.0411-.03a4.9056,4.9056,0,0,0-.34-3.5215ZM6.0951,7.6a4.9056,4.9056,0,0,0,2.88,2.0552c.0153-.0072.0309-.0134.0461-.0208L7.4085,6.8415ZM9.3417,5.148l1.0426-.6019A3.481,3.481,0,0,0,6.8683,3.071,5.32,5.32,0,0,1,9.3417,5.148ZM5.6616,7.85l-1.0458.6038A3.48,3.48,0,0,0,8.1806,9.918,5.3176,5.3176,0,0,1,5.6616,7.85ZM9.5884,5.5829A5.3176,5.3176,0,0,1,10.12,8.7984a3.48,3.48,0,0,0,.5145-3.8193Zm-4.18,1.836a5.32,5.32,0,0,1-.5621-3.1805,3.481,3.481,0,0,0-.48,3.7824Zm.6585-4.0927c-.0293.0132-.0587.0254-.0877.0395L7.5915,6.1585l1.3167-.76A4.8882,4.8882,0,0,0,6.0668,3.3262Z"></path></svg>