<svg xmlns="http://www.w3.org/2000/svg" width="32" height="32" viewBox="0 0 32 32"><title>dots</title><g id="Layer_2" data-name="Layer 2"><circle cx="16" r="1.25" fill="#636363"/><circle r="1.25" fill="#636363"/><circle cy="16" r="1.25" fill="#636363"/><circle cy="8" r="1.25" fill="#636363"/><circle cy="4" r="1.25" fill="#636363"/><circle cy="12" r="1.25" fill="#636363"/><circle cx="8" r="1.25" fill="#636363"/><circle cx="8" cy="16" r="1.25" fill="#636363"/><circle cx="8" cy="8" r="1.25" fill="#636363"/><circle cx="8" cy="4" r="1.25" fill="#636363"/><circle cx="8" cy="12" r="1.25" fill="#636363"/><circle cx="12" cy="2.4946" r="1.25" fill="#636363"/><circle cx="12" cy="10.4946" r="1.25" fill="#636363"/><circle cx="12" cy="6.4946" r="1.25" fill="#636363"/><circle cx="12" cy="14.4946" r="1.25" fill="#636363"/><circle cx="4" cy="2.4946" r="1.25" fill="#636363"/><circle cx="4" cy="10.4946" r="1.25" fill="#636363"/><circle cx="4" cy="6.4946" r="1.25" fill="#636363"/><circle cx="4" cy="14.4946" r="1.25" fill="#636363"/><circle cy="32" r="1.25" fill="#636363"/><circle cy="24" r="1.25" fill="#636363"/><circle cy="20" r="1.25" fill="#636363"/><circle cy="28" r="1.25" fill="#636363"/><circle cx="8" cy="16" r="1.25" fill="#636363"/><circle cx="8" cy="32" r="1.25" fill="#636363"/><circle cx="8" cy="24" r="1.25" fill="#636363"/><circle cx="8" cy="20" r="1.25" fill="#636363"/><circle cx="8" cy="28" r="1.25" fill="#636363"/><circle cx="12" cy="18.4946" r="1.25" fill="#636363"/><circle cx="12" cy="26.4946" r="1.25" fill="#636363"/><circle cx="12" cy="22.4946" r="1.25" fill="#636363"/><circle cx="12" cy="30.4946" r="1.25" fill="#636363"/><circle cx="4" cy="18.4946" r="1.25" fill="#636363"/><circle cx="4" cy="26.4946" r="1.25" fill="#636363"/><circle cx="4" cy="22.4946" r="1.25" fill="#636363"/><circle cx="4" cy="30.4946" r="1.25" fill="#636363"/><circle cx="16" cy="16" r="1.25" fill="#636363"/><circle cx="16" cy="8" r="1.25" fill="#636363"/><circle cx="16" cy="4" r="1.25" fill="#636363"/><circle cx="16" cy="12" r="1.25" fill="#636363"/><circle cx="24" r="1.25" fill="#636363"/><circle cx="24" cy="16" r="1.25" fill="#636363"/><circle cx="24" cy="8" r="1.25" fill="#636363"/><circle cx="24" cy="4" r="1.25" fill="#636363"/><circle cx="24" cy="12" r="1.25" fill="#636363"/><circle cx="28" cy="2.4946" r="1.25" fill="#636363"/><circle cx="28" cy="10.4946" r="1.25" fill="#636363"/><circle cx="28" cy="6.4946" r="1.25" fill="#636363"/><circle cx="28" cy="14.4946" r="1.25" fill="#636363"/><circle cx="20" cy="2.4946" r="1.25" fill="#636363"/><circle cx="20" cy="10.4946" r="1.25" fill="#636363"/><circle cx="20" cy="6.4946" r="1.25" fill="#636363"/><circle cx="20" cy="14.4946" r="1.25" fill="#636363"/><circle cx="16" cy="32" r="1.25" fill="#636363"/><circle cx="16" cy="24" r="1.25" fill="#636363"/><circle cx="16" cy="20" r="1.25" fill="#636363"/><circle cx="16" cy="28" r="1.25" fill="#636363"/><circle cx="32" r="1.25" fill="#636363"/><circle cx="32" cy="16" r="1.25" fill="#636363"/><circle cx="32" cy="8" r="1.25" fill="#636363"/><circle cx="32" cy="4" r="1.25" fill="#636363"/><circle cx="32" cy="12" r="1.25" fill="#636363"/><circle cx="32" cy="16" r="1.25" fill="#636363"/><circle cx="32" cy="32" r="1.25" fill="#636363"/><circle cx="32" cy="24" r="1.25" fill="#636363"/><circle cx="32" cy="20" r="1.25" fill="#636363"/><circle cx="32" cy="28" r="1.25" fill="#636363"/><circle cx="24" cy="16" r="1.25" fill="#636363"/><circle cx="24" cy="32" r="1.25" fill="#636363"/><circle cx="24" cy="24" r="1.25" fill="#636363"/><circle cx="24" cy="20" r="1.25" fill="#636363"/><circle cx="24" cy="28" r="1.25" fill="#636363"/><circle cx="28" cy="18.4946" r="1.25" fill="#636363"/><circle cx="28" cy="26.4946" r="1.25" fill="#636363"/><circle cx="28" cy="22.4946" r="1.25" fill="#636363"/><circle cx="28" cy="30.4946" r="1.25" fill="#636363"/><circle cx="20" cy="18.4946" r="1.25" fill="#636363"/><circle cx="20" cy="26.4946" r="1.25" fill="#636363"/><circle cx="20" cy="22.4946" r="1.25" fill="#636363"/><circle cx="20" cy="30.4946" r="1.25" fill="#636363"/></g></svg>