<svg xmlns="http://www.w3.org/2000/svg" width="32" height="32" viewBox="0 0 32 32"><title>dotssvg</title><g id="Layer_2" data-name="Layer 2"><circle r="0.9375" fill="#636363"/><circle cy="12.7993" r="0.9375" fill="#636363"/><circle cy="6.4504" r="0.9375" fill="#636363"/><circle cy="3.2759" r="0.9375" fill="#636363"/><circle cy="9.6248" r="0.9375" fill="#636363"/><circle cy="25.4971" r="0.9375" fill="#636363"/><circle cy="32" r="0.9375" fill="#636363"/><circle cy="28.6716" r="0.9375" fill="#636363"/><circle cy="19.1482" r="0.9375" fill="#636363"/><circle cy="15.9738" r="0.9375" fill="#636363"/><circle cy="22.3227" r="0.9375" fill="#636363"/><circle cx="3.2" cy="1.6616" r="0.9375" fill="#636363"/><circle cx="3.2" cy="14.4609" r="0.9375" fill="#636363"/><circle cx="3.2" cy="8.112" r="0.9375" fill="#636363"/><circle cx="3.2" cy="4.9375" r="0.9375" fill="#636363"/><circle cx="3.2" cy="11.2864" r="0.9375" fill="#636363"/><circle cx="3.2" cy="27.1587" r="0.9375" fill="#636363"/><circle cx="3.2" cy="30.3332" r="0.9375" fill="#636363"/><circle cx="3.2" cy="20.8098" r="0.9375" fill="#636363"/><circle cx="3.2" cy="17.6353" r="0.9375" fill="#636363"/><circle cx="3.2" cy="23.9843" r="0.9375" fill="#636363"/><circle cx="12.8" r="0.9375" fill="#636363"/><circle cx="12.8" cy="12.7993" r="0.9375" fill="#636363"/><circle cx="12.8" cy="6.4504" r="0.9375" fill="#636363"/><circle cx="12.8" cy="3.2759" r="0.9375" fill="#636363"/><circle cx="12.8" cy="9.6248" r="0.9375" fill="#636363"/><circle cx="12.8" cy="25.4971" r="0.9375" fill="#636363"/><circle cx="12.8" cy="32" r="0.9375" fill="#636363"/><circle cx="12.8" cy="28.6716" r="0.9375" fill="#636363"/><circle cx="12.8" cy="19.1482" r="0.9375" fill="#636363"/><circle cx="12.8" cy="15.9738" r="0.9375" fill="#636363"/><circle cx="12.8" cy="22.3227" r="0.9375" fill="#636363"/><circle cx="16" cy="1.6616" r="0.9375" fill="#636363"/><circle cx="16" cy="14.4609" r="0.9375" fill="#636363"/><circle cx="16" cy="8.112" r="0.9375" fill="#636363"/><circle cx="16" cy="4.9375" r="0.9375" fill="#636363"/><circle cx="16" cy="11.2864" r="0.9375" fill="#636363"/><circle cx="16" cy="27.1587" r="0.9375" fill="#636363"/><circle cx="16" cy="30.3332" r="0.9375" fill="#636363"/><circle cx="16" cy="20.8098" r="0.9375" fill="#636363"/><circle cx="16" cy="17.6353" r="0.9375" fill="#636363"/><circle cx="16" cy="23.9843" r="0.9375" fill="#636363"/><circle cx="6.4" r="0.9375" fill="#636363"/><circle cx="6.4" cy="12.7993" r="0.9375" fill="#636363"/><circle cx="6.4" cy="6.4504" r="0.9375" fill="#636363"/><circle cx="6.4" cy="3.2759" r="0.9375" fill="#636363"/><circle cx="6.4" cy="9.6248" r="0.9375" fill="#636363"/><circle cx="6.4" cy="25.4971" r="0.9375" fill="#636363"/><circle cx="6.4" cy="32" r="0.9375" fill="#636363"/><circle cx="6.4" cy="28.6716" r="0.9375" fill="#636363"/><circle cx="6.4" cy="19.1482" r="0.9375" fill="#636363"/><circle cx="6.4" cy="15.9738" r="0.9375" fill="#636363"/><circle cx="6.4" cy="22.3227" r="0.9375" fill="#636363"/><circle cx="9.6" cy="1.6616" r="0.9375" fill="#636363"/><circle cx="9.6" cy="14.4609" r="0.9375" fill="#636363"/><circle cx="9.6" cy="8.112" r="0.9375" fill="#636363"/><circle cx="9.6" cy="4.9375" r="0.9375" fill="#636363"/><circle cx="9.6" cy="11.2864" r="0.9375" fill="#636363"/><circle cx="9.6" cy="27.1587" r="0.9375" fill="#636363"/><circle cx="9.6" cy="30.3332" r="0.9375" fill="#636363"/><circle cx="9.6" cy="20.8098" r="0.9375" fill="#636363"/><circle cx="9.6" cy="17.6353" r="0.9375" fill="#636363"/><circle cx="9.6" cy="23.9843" r="0.9375" fill="#636363"/><circle cx="19.2" r="0.9375" fill="#636363"/><circle cx="19.2" cy="12.7993" r="0.9375" fill="#636363"/><circle cx="19.2" cy="6.4504" r="0.9375" fill="#636363"/><circle cx="19.2" cy="3.2759" r="0.9375" fill="#636363"/><circle cx="19.2" cy="9.6248" r="0.9375" fill="#636363"/><circle cx="19.2" cy="25.4971" r="0.9375" fill="#636363"/><circle cx="19.2" cy="32" r="0.9375" fill="#636363"/><circle cx="19.2" cy="28.6716" r="0.9375" fill="#636363"/><circle cx="19.2" cy="19.1482" r="0.9375" fill="#636363"/><circle cx="19.2" cy="15.9738" r="0.9375" fill="#636363"/><circle cx="19.2" cy="22.3227" r="0.9375" fill="#636363"/><circle cx="28.8" cy="1.6616" r="0.9375" fill="#636363"/><circle cx="28.8" cy="14.4609" r="0.9375" fill="#636363"/><circle cx="28.8" cy="8.112" r="0.9375" fill="#636363"/><circle cx="28.8" cy="4.9375" r="0.9375" fill="#636363"/><circle cx="28.8" cy="11.2864" r="0.9375" fill="#636363"/><circle cx="28.8" cy="27.1587" r="0.9375" fill="#636363"/><circle cx="28.8" cy="30.3332" r="0.9375" fill="#636363"/><circle cx="28.8" cy="20.8098" r="0.9375" fill="#636363"/><circle cx="28.8" cy="17.6353" r="0.9375" fill="#636363"/><circle cx="28.8" cy="23.9843" r="0.9375" fill="#636363"/><circle cx="32" r="0.9375" fill="#636363"/><circle cx="32" cy="12.7993" r="0.9375" fill="#636363"/><circle cx="32" cy="6.4504" r="0.9375" fill="#636363"/><circle cx="32" cy="3.2759" r="0.9375" fill="#636363"/><circle cx="32" cy="9.6248" r="0.9375" fill="#636363"/><circle cx="32" cy="25.4971" r="0.9375" fill="#636363"/><circle cx="32" cy="32" r="0.9375" fill="#636363"/><circle cx="32" cy="28.6716" r="0.9375" fill="#636363"/><circle cx="32" cy="19.1482" r="0.9375" fill="#636363"/><circle cx="32" cy="15.9738" r="0.9375" fill="#636363"/><circle cx="32" cy="22.3227" r="0.9375" fill="#636363"/><circle cx="22.4" cy="1.6616" r="0.9375" fill="#636363"/><circle cx="22.4" cy="14.4609" r="0.9375" fill="#636363"/><circle cx="22.4" cy="8.112" r="0.9375" fill="#636363"/><circle cx="22.4" cy="4.9375" r="0.9375" fill="#636363"/><circle cx="22.4" cy="11.2864" r="0.9375" fill="#636363"/><circle cx="22.4" cy="27.1587" r="0.9375" fill="#636363"/><circle cx="22.4" cy="30.3332" r="0.9375" fill="#636363"/><circle cx="22.4" cy="20.8098" r="0.9375" fill="#636363"/><circle cx="22.4" cy="17.6353" r="0.9375" fill="#636363"/><circle cx="22.4" cy="23.9843" r="0.9375" fill="#636363"/><circle cx="25.6" r="0.9375" fill="#636363"/><circle cx="25.6" cy="12.7993" r="0.9375" fill="#636363"/><circle cx="25.6" cy="6.4504" r="0.9375" fill="#636363"/><circle cx="25.6" cy="3.2759" r="0.9375" fill="#636363"/><circle cx="25.6" cy="9.6248" r="0.9375" fill="#636363"/><circle cx="25.6" cy="25.4971" r="0.9375" fill="#636363"/><circle cx="25.6" cy="32" r="0.9375" fill="#636363"/><circle cx="25.6" cy="28.6716" r="0.9375" fill="#636363"/><circle cx="25.6" cy="19.1482" r="0.9375" fill="#636363"/><circle cx="25.6" cy="15.9738" r="0.9375" fill="#636363"/><circle cx="25.6" cy="22.3227" r="0.9375" fill="#636363"/></g></svg>