<svg xmlns="http://www.w3.org/2000/svg" width="32" height="32" viewBox="0 0 32 32"><title>dots</title><g id="Layer_2" data-name="Layer 2"><circle r="2.5" fill="#636363"/><circle cy="32" r="2.5" fill="#636363"/><circle cy="16" r="2.5" fill="#636363"/><circle cy="8" r="2.5" fill="#636363"/><circle cy="24" r="2.5" fill="#636363"/><circle cx="32" r="2.5" fill="#636363"/><circle cx="32" cy="32" r="2.5" fill="#636363"/><circle cx="32" cy="16" r="2.5" fill="#636363"/><circle cx="32" cy="8" r="2.5" fill="#636363"/><circle cx="32" cy="24" r="2.5" fill="#636363"/><circle cx="16" r="2.5" fill="#636363"/><circle cx="16" cy="32" r="2.5" fill="#636363"/><circle cx="16" cy="16" r="2.5" fill="#636363"/><circle cx="16" cy="8" r="2.5" fill="#636363"/><circle cx="16" cy="24" r="2.5" fill="#636363"/><circle cx="24" cy="4.9892" r="2.5" fill="#636363"/><circle cx="24" cy="20.9892" r="2.5" fill="#636363"/><circle cx="24" cy="12.9892" r="2.5" fill="#636363"/><circle cx="24" cy="28.9892" r="2.5" fill="#636363"/><circle cx="8" cy="4.9892" r="2.5" fill="#636363"/><circle cx="8" cy="20.9892" r="2.5" fill="#636363"/><circle cx="8" cy="12.9892" r="2.5" fill="#636363"/><circle cx="8" cy="28.9892" r="2.5" fill="#636363"/></g></svg>