<svg xmlns="http://www.w3.org/2000/svg" width="32" height="32" viewBox="0 0 32 32"><title>dots</title><g id="Layer_2" data-name="Layer 2"><circle r="1.25" fill="#636363"/><circle cy="14.2222" r="1.25" fill="#636363"/><circle cy="7.1111" r="1.25" fill="#636363"/><circle cy="3.5556" r="1.25" fill="#636363"/><circle cy="10.6667" r="1.25" fill="#636363"/><circle cy="28.4444" r="1.25" fill="#636363"/><circle cy="32" r="1.25" fill="#636363"/><circle cy="21.3333" r="1.25" fill="#636363"/><circle cy="17.7778" r="1.25" fill="#636363"/><circle cy="24.8889" r="1.25" fill="#636363"/><circle cx="3.2" cy="1.7778" r="1.25" fill="#636363"/><circle cx="3.2" cy="16" r="1.25" fill="#636363"/><circle cx="3.2" cy="8.8889" r="1.25" fill="#636363"/><circle cx="3.2" cy="5.3333" r="1.25" fill="#636363"/><circle cx="3.2" cy="12.4444" r="1.25" fill="#636363"/><circle cx="3.2" cy="30.2222" r="1.25" fill="#636363"/><circle cx="3.2" cy="23.1111" r="1.25" fill="#636363"/><circle cx="3.2" cy="19.5556" r="1.25" fill="#636363"/><circle cx="3.2" cy="26.6667" r="1.25" fill="#636363"/><circle cx="6.4" r="1.25" fill="#636363"/><circle cx="6.4" cy="14.2222" r="1.25" fill="#636363"/><circle cx="6.4" cy="7.1111" r="1.25" fill="#636363"/><circle cx="6.4" cy="3.5556" r="1.25" fill="#636363"/><circle cx="6.4" cy="10.6667" r="1.25" fill="#636363"/><circle cx="6.4" cy="28.4444" r="1.25" fill="#636363"/><circle cx="6.4" cy="32" r="1.25" fill="#636363"/><circle cx="6.4" cy="21.3333" r="1.25" fill="#636363"/><circle cx="6.4" cy="17.7778" r="1.25" fill="#636363"/><circle cx="6.4" cy="24.8889" r="1.25" fill="#636363"/><circle cx="9.6" cy="1.7778" r="1.25" fill="#636363"/><circle cx="9.6" cy="16" r="1.25" fill="#636363"/><circle cx="9.6" cy="8.8889" r="1.25" fill="#636363"/><circle cx="9.6" cy="5.3333" r="1.25" fill="#636363"/><circle cx="9.6" cy="12.4444" r="1.25" fill="#636363"/><circle cx="9.6" cy="30.2222" r="1.25" fill="#636363"/><circle cx="9.6" cy="23.1111" r="1.25" fill="#636363"/><circle cx="9.6" cy="19.5556" r="1.25" fill="#636363"/><circle cx="9.6" cy="26.6667" r="1.25" fill="#636363"/><circle cx="12.8" r="1.25" fill="#636363"/><circle cx="12.8" cy="14.2222" r="1.25" fill="#636363"/><circle cx="12.8" cy="7.1111" r="1.25" fill="#636363"/><circle cx="12.8" cy="3.5556" r="1.25" fill="#636363"/><circle cx="12.8" cy="10.6667" r="1.25" fill="#636363"/><circle cx="12.8" cy="28.4444" r="1.25" fill="#636363"/><circle cx="12.8" cy="32" r="1.25" fill="#636363"/><circle cx="12.8" cy="21.3333" r="1.25" fill="#636363"/><circle cx="12.8" cy="17.7778" r="1.25" fill="#636363"/><circle cx="12.8" cy="24.8889" r="1.25" fill="#636363"/><circle cx="16" cy="1.7778" r="1.25" fill="#636363"/><circle cx="16" cy="16" r="1.25" fill="#636363"/><circle cx="16" cy="8.8889" r="1.25" fill="#636363"/><circle cx="16" cy="5.3333" r="1.25" fill="#636363"/><circle cx="16" cy="12.4444" r="1.25" fill="#636363"/><circle cx="16" cy="30.2222" r="1.25" fill="#636363"/><circle cx="16" cy="23.1111" r="1.25" fill="#636363"/><circle cx="16" cy="19.5556" r="1.25" fill="#636363"/><circle cx="16" cy="26.6667" r="1.25" fill="#636363"/><circle cx="19.2" r="1.25" fill="#636363"/><circle cx="19.2" cy="14.2222" r="1.25" fill="#636363"/><circle cx="19.2" cy="7.1111" r="1.25" fill="#636363"/><circle cx="19.2" cy="3.5556" r="1.25" fill="#636363"/><circle cx="19.2" cy="10.6667" r="1.25" fill="#636363"/><circle cx="19.2" cy="28.4444" r="1.25" fill="#636363"/><circle cx="19.2" cy="32" r="1.25" fill="#636363"/><circle cx="19.2" cy="21.3333" r="1.25" fill="#636363"/><circle cx="19.2" cy="17.7778" r="1.25" fill="#636363"/><circle cx="19.2" cy="24.8889" r="1.25" fill="#636363"/><circle cx="22.4" cy="1.7778" r="1.25" fill="#636363"/><circle cx="22.4" cy="16" r="1.25" fill="#636363"/><circle cx="22.4" cy="8.8889" r="1.25" fill="#636363"/><circle cx="22.4" cy="5.3333" r="1.25" fill="#636363"/><circle cx="22.4" cy="12.4444" r="1.25" fill="#636363"/><circle cx="22.4" cy="30.2222" r="1.25" fill="#636363"/><circle cx="22.4" cy="23.1111" r="1.25" fill="#636363"/><circle cx="22.4" cy="19.5556" r="1.25" fill="#636363"/><circle cx="22.4" cy="26.6667" r="1.25" fill="#636363"/><circle cx="25.6" r="1.25" fill="#636363"/><circle cx="25.6" cy="14.2222" r="1.25" fill="#636363"/><circle cx="25.6" cy="7.1111" r="1.25" fill="#636363"/><circle cx="25.6" cy="3.5556" r="1.25" fill="#636363"/><circle cx="25.6" cy="10.6667" r="1.25" fill="#636363"/><circle cx="25.6" cy="28.4444" r="1.25" fill="#636363"/><circle cx="25.6" cy="32" r="1.25" fill="#636363"/><circle cx="25.6" cy="21.3333" r="1.25" fill="#636363"/><circle cx="25.6" cy="17.7778" r="1.25" fill="#636363"/><circle cx="25.6" cy="24.8889" r="1.25" fill="#636363"/><circle cx="28.8" cy="1.7778" r="1.25" fill="#636363"/><circle cx="28.8" cy="16" r="1.25" fill="#636363"/><circle cx="28.8" cy="8.8889" r="1.25" fill="#636363"/><circle cx="28.8" cy="5.3333" r="1.25" fill="#636363"/><circle cx="28.8" cy="12.4444" r="1.25" fill="#636363"/><circle cx="28.8" cy="30.2222" r="1.25" fill="#636363"/><circle cx="28.8" cy="23.1111" r="1.25" fill="#636363"/><circle cx="28.8" cy="19.5556" r="1.25" fill="#636363"/><circle cx="28.8" cy="26.6667" r="1.25" fill="#636363"/><circle cx="32" r="1.25" fill="#636363"/><circle cx="32" cy="14.2222" r="1.25" fill="#636363"/><circle cx="32" cy="7.1111" r="1.25" fill="#636363"/><circle cx="32" cy="3.5556" r="1.25" fill="#636363"/><circle cx="32" cy="10.6667" r="1.25" fill="#636363"/><circle cx="32" cy="28.4444" r="1.25" fill="#636363"/><circle cx="32" cy="32" r="1.25" fill="#636363"/><circle cx="32" cy="21.3333" r="1.25" fill="#636363"/><circle cx="32" cy="17.7778" r="1.25" fill="#636363"/><circle cx="32" cy="24.8889" r="1.25" fill="#636363"/></g></svg>