<svg xmlns="http://www.w3.org/2000/svg" width="30" height="30" viewBox="0 0 30 30"><title>le-shine</title><g id="Layer_2" data-name="Layer 2"><rect x="-2.0163" y="-2.0045" width="3.9913" height="3.9913" fill="#a5c9df"/><rect x="3.9776" y="-2.0045" width="3.9913" height="3.9913" fill="#a5c9df"/><rect x="9.9862" y="-2.0133" width="3.9913" height="3.9913" fill="#a5c9df"/><rect x="15.983" y="-2.0133" width="3.9913" height="3.9913" fill="#a5c9df"/><rect x="21.983" y="-2.0133" width="3.9913" height="3.9913" fill="#a5c9df"/><rect x="27.983" y="-2.0133" width="3.9913" height="3.9913" fill="#a5c9df"/><rect x="-2.0114" y="3.9886" width="3.9913" height="3.9913" fill="#a5c9df"/><rect x="3.9835" y="3.9926" width="3.9913" height="3.9913" fill="#a5c9df"/><rect x="9.9862" y="3.9867" width="3.9913" height="3.9913" fill="#a5c9df"/><rect x="15.983" y="3.9867" width="3.9913" height="3.9913" fill="#a5c9df"/><rect x="21.983" y="3.9867" width="3.9913" height="3.9913" fill="#a5c9df"/><rect x="27.983" y="3.9867" width="3.9913" height="3.9913" fill="#a5c9df"/><rect x="-2.0163" y="9.9877" width="3.9913" height="3.9913" fill="#a5c9df"/><rect x="3.9854" y="9.9877" width="3.9913" height="3.9913" fill="#a5c9df"/><rect x="9.9862" y="9.9789" width="3.9913" height="3.9913" fill="#a5c9df"/><rect x="15.983" y="9.9789" width="3.9913" height="3.9913" fill="#a5c9df"/><rect x="21.983" y="9.9789" width="3.9913" height="3.9913" fill="#a5c9df"/><rect x="27.983" y="9.9789" width="3.9913" height="3.9913" fill="#a5c9df"/><rect x="-2.0114" y="15.9808" width="3.9913" height="3.9913" fill="#a5c9df"/><rect x="3.9835" y="15.9848" width="3.9913" height="3.9913" fill="#a5c9df"/><rect x="9.9862" y="15.9789" width="3.9913" height="3.9913" fill="#a5c9df"/><rect x="15.983" y="15.9789" width="3.9913" height="3.9913" fill="#a5c9df"/><rect x="21.983" y="15.9789" width="3.9913" height="3.9913" fill="#a5c9df"/><rect x="27.983" y="15.9789" width="3.9913" height="3.9913" fill="#a5c9df"/><rect x="-2.0163" y="21.9878" width="3.9913" height="3.9913" fill="#a5c9df"/><rect x="3.9854" y="21.9878" width="3.9913" height="3.9913" fill="#a5c9df"/><rect x="9.9862" y="21.9789" width="3.9913" height="3.9913" fill="#a5c9df"/><rect x="15.983" y="21.9789" width="3.9913" height="3.9913" fill="#a5c9df"/><rect x="21.983" y="21.9789" width="3.9913" height="3.9913" fill="#a5c9df"/><rect x="27.983" y="21.9789" width="3.9913" height="3.9913" fill="#a5c9df"/><rect x="-2.0114" y="27.9809" width="3.9913" height="3.9913" fill="#a5c9df"/><rect x="3.9835" y="27.9848" width="3.9913" height="3.9913" fill="#a5c9df"/><rect x="9.9862" y="27.9789" width="3.9913" height="3.9913" fill="#a5c9df"/><rect x="15.983" y="27.9789" width="3.9913" height="3.9913" fill="#a5c9df"/><rect x="21.983" y="27.9789" width="3.9913" height="3.9913" fill="#a5c9df"/><rect x="27.983" y="27.9789" width="3.9913" height="3.9913" fill="#a5c9df"/></g></svg>