<svg xmlns="http://www.w3.org/2000/svg" width="30" height="30" viewBox="0 0 30 30"><title>le-shine</title><g id="Layer_2" data-name="Layer 2"><rect x="-1.9939" y="-2.0035" width="4.0285" height="4.0285" transform="translate(0.0271 0.0327) rotate(-135)" fill="#bbd6e7"/><rect x="-1.9919" y="7.9797" width="4.0285" height="4.0285" transform="translate(-7.0286 17.0766) rotate(-135)" fill="#bbd6e7"/><rect x="2.9987" y="2.9892" width="4.0285" height="4.0285" transform="translate(5.0197 12.086) rotate(-135)" fill="#bbd6e7"/><rect x="8.0054" y="-2.0176" width="4.0285" height="4.0285" transform="translate(17.107 7.0793) rotate(-135)" fill="#bbd6e7"/><rect x="3.0072" y="12.9788" width="4.0285" height="4.0285" transform="translate(-2.0296 29.1454) rotate(-135)" fill="#bbd6e7"/><rect x="7.9978" y="7.9882" width="4.0285" height="4.0285" transform="translate(10.0188 24.1548) rotate(-135)" fill="#bbd6e7"/><rect x="13.0045" y="2.9815" width="4.0285" height="4.0285" transform="translate(22.1061 19.1481) rotate(-135)" fill="#bbd6e7"/><rect x="18.0034" y="-2.0174" width="4.0285" height="4.0285" transform="translate(34.1745 14.1492) rotate(-135)" fill="#bbd6e7"/><rect x="8.0072" y="17.9788" width="4.0285" height="4.0285" transform="translate(2.9705 41.2165) rotate(-135)" fill="#bbd6e7"/><rect x="12.9978" y="12.9882" width="4.0285" height="4.0285" transform="translate(15.0188 36.2259) rotate(-135)" fill="#bbd6e7"/><rect x="18.0045" y="7.9815" width="4.0285" height="4.0285" transform="translate(27.1061 31.2192) rotate(-135)" fill="#bbd6e7"/><rect x="23.0034" y="2.9826" width="4.0285" height="4.0285" transform="translate(39.1745 26.2203) rotate(-135)" fill="#bbd6e7"/><rect x="-1.9819" y="27.9707" width="4.0285" height="4.0285" transform="translate(-21.1474 51.2104) rotate(-135)" fill="#bbd6e7"/><rect x="-1.9835" y="17.9821" width="4.0285" height="4.0285" transform="translate(-14.0871 34.1576) rotate(-135)" fill="#bbd6e7"/><rect x="3.013" y="22.9814" width="4.0285" height="4.0285" transform="translate(-9.0925 46.225) rotate(-135)" fill="#bbd6e7"/><rect x="28.0109" y="-2.0221" width="4.0285" height="4.0285" transform="translate(51.2616 21.2176) rotate(-135)" fill="#bbd6e7"/><rect x="13.001" y="22.9726" width="4.0285" height="4.0285" transform="translate(7.9642 53.2725) rotate(-135)" fill="#bbd6e7"/><rect x="17.9915" y="17.982" width="4.0285" height="4.0285" transform="translate(20.0126 48.2819) rotate(-135)" fill="#bbd6e7"/><rect x="22.9983" y="12.9753" width="4.0285" height="4.0285" transform="translate(32.0998 43.2752) rotate(-135)" fill="#bbd6e7"/><rect x="27.9972" y="7.9764" width="4.0285" height="4.0285" transform="translate(44.1682 38.2763) rotate(-135)" fill="#bbd6e7"/><rect x="8.0102" y="27.9759" width="4.0285" height="4.0285" transform="translate(-4.0933 58.2847) rotate(-135)" fill="#bbd6e7"/><rect x="17.9968" y="27.9684" width="4.0285" height="4.0285" transform="translate(12.96 65.3335) rotate(-135)" fill="#bbd6e7"/><rect x="22.9874" y="22.9778" width="4.0285" height="4.0285" transform="translate(25.0084 60.3429) rotate(-135)" fill="#bbd6e7"/><rect x="27.9941" y="17.9711" width="4.0285" height="4.0285" transform="translate(37.0956 55.3362) rotate(-135)" fill="#bbd6e7"/><rect x="27.9832" y="27.9736" width="4.0285" height="4.0285" transform="translate(30.0042 72.4039) rotate(-135)" fill="#bbd6e7"/></g></svg>