<svg xmlns="http://www.w3.org/2000/svg" width="32" height="32" viewBox="0 0 32 32"><title>le-shine</title><g id="Layer_2" data-name="Layer 2"><line x1="42.5037" y1="-10.5088" x2="-12.0908" y2="44.0857" fill="none" stroke="#a5c9df" stroke-miterlimit="10" stroke-width="0.5"/><line x1="47.0469" y1="-10.5088" x2="-7.5476" y2="44.0857" fill="none" stroke="#a5c9df" stroke-miterlimit="10" stroke-width="0.5"/><line x1="51.5901" y1="-10.5088" x2="-3.0043" y2="44.0857" fill="none" stroke="#a5c9df" stroke-miterlimit="10" stroke-width="0.5"/><line x1="56.1333" y1="-10.5088" x2="1.5389" y2="44.0857" fill="none" stroke="#a5c9df" stroke-miterlimit="10" stroke-width="0.5"/><line x1="60.6765" y1="-10.5088" x2="6.0821" y2="44.0857" fill="none" stroke="#a5c9df" stroke-miterlimit="10" stroke-width="0.5"/><line x1="65.2197" y1="-10.5088" x2="10.6253" y2="44.0857" fill="none" stroke="#a5c9df" stroke-miterlimit="10" stroke-width="0.5"/><line x1="69.7629" y1="-10.5088" x2="15.1685" y2="44.0857" fill="none" stroke="#a5c9df" stroke-miterlimit="10" stroke-width="0.5"/><line x1="74.3061" y1="-10.5088" x2="19.7117" y2="44.0857" fill="none" stroke="#a5c9df" stroke-miterlimit="10" stroke-width="0.5"/><line x1="10.7012" y1="-10.5088" x2="-43.8932" y2="44.0857" fill="none" stroke="#a5c9df" stroke-miterlimit="10" stroke-width="0.5"/><line x1="15.2444" y1="-10.5088" x2="-39.35" y2="44.0857" fill="none" stroke="#a5c9df" stroke-miterlimit="10" stroke-width="0.5"/><line x1="19.7876" y1="-10.5088" x2="-34.8068" y2="44.0857" fill="none" stroke="#a5c9df" stroke-miterlimit="10" stroke-width="0.5"/><line x1="24.3308" y1="-10.5088" x2="-30.2636" y2="44.0857" fill="none" stroke="#a5c9df" stroke-miterlimit="10" stroke-width="0.5"/><line x1="28.874" y1="-10.5088" x2="-25.7204" y2="44.0857" fill="none" stroke="#a5c9df" stroke-miterlimit="10" stroke-width="0.5"/><line x1="33.4173" y1="-10.5088" x2="-21.1772" y2="44.0857" fill="none" stroke="#a5c9df" stroke-miterlimit="10" stroke-width="0.5"/><line x1="37.9605" y1="-10.5088" x2="-16.634" y2="44.0857" fill="none" stroke="#a5c9df" stroke-miterlimit="10" stroke-width="0.5"/></g></svg>