<svg xmlns="http://www.w3.org/2000/svg" width="40.0247" height="39.9927" viewBox="0 0 40.0247 39.9927"><title>le-shine</title><g id="Layer_2" data-name="Layer 2"><rect x="7.9978" y="7.9882" width="4.0285" height="4.0285" transform="translate(10.0188 24.1548) rotate(-135)" fill="#bbd6e7"/><rect x="-1.9835" y="17.9821" width="4.0285" height="4.0285" transform="translate(-14.0871 34.1576) rotate(-135)" fill="#bbd6e7"/><rect x="-1.9939" y="-2.0035" width="4.0285" height="4.0285" transform="translate(0.0271 0.0327) rotate(-135)" fill="#bbd6e7"/><rect x="18.0034" y="-2.0174" width="4.0285" height="4.0285" transform="translate(34.1745 14.1492) rotate(-135)" fill="#bbd6e7"/><rect x="17.9915" y="17.982" width="4.0285" height="4.0285" transform="translate(20.0126 48.2819) rotate(-135)" fill="#bbd6e7"/><rect x="27.9972" y="7.9764" width="4.0285" height="4.0285" transform="translate(44.1682 38.2763) rotate(-135)" fill="#bbd6e7"/><rect x="8.0102" y="27.9759" width="4.0285" height="4.0285" transform="translate(-4.0933 58.2847) rotate(-135)" fill="#bbd6e7"/><rect x="27.9832" y="27.9736" width="4.0285" height="4.0285" transform="translate(30.0042 72.4039) rotate(-135)" fill="#bbd6e7"/><rect x="38.0199" y="17.9788" width="4.0285" height="4.0285" transform="translate(54.2054 62.4387) rotate(-135)" fill="#bbd6e7"/><rect x="38.0182" y="-2.0176" width="4.0285" height="4.0285" transform="translate(68.3419 28.3015) rotate(-135)" fill="#bbd6e7"/><rect x="-1.9919" y="37.9699" width="4.0285" height="4.0285" transform="translate(-28.2349 68.2731) rotate(-135)" fill="#bbd6e7"/><rect x="18.0045" y="37.9717" width="4.0285" height="4.0285" transform="translate(5.8998 82.4157) rotate(-135)" fill="#bbd6e7"/><rect x="38.0105" y="37.9784" width="4.0285" height="4.0285" transform="translate(40.0474 96.5735) rotate(-135)" fill="#bbd6e7"/></g></svg>