<svg xmlns="http://www.w3.org/2000/svg" width="32" height="32" viewBox="0 0 32 32"><title>le-shine</title><g id="Layer_2" data-name="Layer 2"><line x1="33" y1="-1" x2="-0.9931" y2="32.9931" fill="none" stroke="#636363" stroke-miterlimit="10" stroke-width="0.5"/><line x1="33" y1="0.5714" x2="-0.9931" y2="34.5645" fill="none" stroke="#636363" stroke-miterlimit="10" stroke-width="0.5"/><line x1="33" y1="2.1429" x2="-0.9931" y2="36.1359" fill="none" stroke="#636363" stroke-miterlimit="10" stroke-width="0.5"/><line x1="33" y1="3.7143" x2="-0.9931" y2="37.7073" fill="none" stroke="#636363" stroke-miterlimit="10" stroke-width="0.5"/><line x1="33" y1="5.2857" x2="-0.9931" y2="39.2788" fill="none" stroke="#636363" stroke-miterlimit="10" stroke-width="0.5"/><line x1="33" y1="21" x2="8.5069" y2="45.4931" fill="none" stroke="#636363" stroke-miterlimit="10" stroke-width="0.5"/><line x1="33" y1="22.5714" x2="8.5069" y2="47.0645" fill="none" stroke="#636363" stroke-miterlimit="10" stroke-width="0.5"/><line x1="33" y1="24.1429" x2="8.5069" y2="48.6359" fill="none" stroke="#636363" stroke-miterlimit="10" stroke-width="0.5"/><line x1="33" y1="25.7143" x2="8.5069" y2="50.2073" fill="none" stroke="#636363" stroke-miterlimit="10" stroke-width="0.5"/><line x1="33" y1="27.2857" x2="8.5069" y2="51.7788" fill="none" stroke="#636363" stroke-miterlimit="10" stroke-width="0.5"/><line x1="33" y1="6.8571" x2="-0.9931" y2="40.8502" fill="none" stroke="#636363" stroke-miterlimit="10" stroke-width="0.5"/><line x1="33" y1="8.4286" x2="-0.9931" y2="42.4216" fill="none" stroke="#636363" stroke-miterlimit="10" stroke-width="0.5"/><line x1="33" y1="10" x2="-0.9931" y2="43.9931" fill="none" stroke="#636363" stroke-miterlimit="10" stroke-width="0.5"/><line x1="33" y1="11.5714" x2="-0.9931" y2="45.5645" fill="none" stroke="#636363" stroke-miterlimit="10" stroke-width="0.5"/><line x1="33" y1="13.1429" x2="-0.9931" y2="47.1359" fill="none" stroke="#636363" stroke-miterlimit="10" stroke-width="0.5"/><line x1="33" y1="14.7143" x2="-0.9931" y2="48.7073" fill="none" stroke="#636363" stroke-miterlimit="10" stroke-width="0.5"/><line x1="33" y1="16.2857" x2="-0.9931" y2="50.2788" fill="none" stroke="#636363" stroke-miterlimit="10" stroke-width="0.5"/><line x1="33" y1="17.8571" x2="-0.9931" y2="51.8502" fill="none" stroke="#636363" stroke-miterlimit="10" stroke-width="0.5"/><line x1="33" y1="19.4286" x2="-0.9931" y2="53.4216" fill="none" stroke="#636363" stroke-miterlimit="10" stroke-width="0.5"/><line x1="40.9038" y1="21" x2="16.4107" y2="45.4931" fill="none" stroke="#636363" stroke-miterlimit="10" stroke-width="0.5"/><line x1="40.9038" y1="22.5714" x2="16.4107" y2="47.0645" fill="none" stroke="#636363" stroke-miterlimit="10" stroke-width="0.5"/><line x1="16.2659" y1="-15.7341" x2="-17.7272" y2="18.2589" fill="none" stroke="#636363" stroke-miterlimit="10" stroke-width="0.5"/><line x1="16.2659" y1="-14.1627" x2="-17.7272" y2="19.8304" fill="none" stroke="#636363" stroke-miterlimit="10" stroke-width="0.5"/><line x1="16.2659" y1="-12.5913" x2="-17.7272" y2="21.4018" fill="none" stroke="#636363" stroke-miterlimit="10" stroke-width="0.5"/><line x1="16.2659" y1="-11.0198" x2="-17.7272" y2="22.9732" fill="none" stroke="#636363" stroke-miterlimit="10" stroke-width="0.5"/><line x1="16.2659" y1="-9.4484" x2="-17.7272" y2="24.5446" fill="none" stroke="#636363" stroke-miterlimit="10" stroke-width="0.5"/><line x1="34.4782" y1="-11.9464" x2="-8.2272" y2="30.7589" fill="none" stroke="#636363" stroke-miterlimit="10" stroke-width="0.5"/><line x1="34.4782" y1="-10.375" x2="-8.2272" y2="32.3304" fill="none" stroke="#636363" stroke-miterlimit="10" stroke-width="0.5"/><line x1="34.4782" y1="-8.8036" x2="-8.2272" y2="33.9018" fill="none" stroke="#636363" stroke-miterlimit="10" stroke-width="0.5"/><line x1="34.4782" y1="-7.2321" x2="-8.2272" y2="35.4732" fill="none" stroke="#636363" stroke-miterlimit="10" stroke-width="0.5"/><line x1="34.4782" y1="-5.6607" x2="-8.2272" y2="37.0446" fill="none" stroke="#636363" stroke-miterlimit="10" stroke-width="0.5"/><line x1="16.2659" y1="-7.877" x2="-17.7272" y2="26.1161" fill="none" stroke="#636363" stroke-miterlimit="10" stroke-width="0.5"/><line x1="16.2659" y1="-6.3056" x2="-17.7272" y2="27.6875" fill="none" stroke="#636363" stroke-miterlimit="10" stroke-width="0.5"/><line x1="16.2659" y1="-4.7341" x2="-17.7272" y2="29.2589" fill="none" stroke="#636363" stroke-miterlimit="10" stroke-width="0.5"/><line x1="16.2659" y1="-3.1627" x2="-17.7272" y2="30.8304" fill="none" stroke="#636363" stroke-miterlimit="10" stroke-width="0.5"/><line x1="16.2659" y1="-1.5913" x2="-17.7272" y2="32.4018" fill="none" stroke="#636363" stroke-miterlimit="10" stroke-width="0.5"/><line x1="34.4782" y1="-18.2321" x2="-17.7272" y2="33.9732" fill="none" stroke="#636363" stroke-miterlimit="10" stroke-width="0.5"/><line x1="34.4782" y1="-16.6607" x2="-17.7272" y2="35.5446" fill="none" stroke="#636363" stroke-miterlimit="10" stroke-width="0.5"/><line x1="34.4782" y1="-15.0893" x2="-17.7272" y2="37.1161" fill="none" stroke="#636363" stroke-miterlimit="10" stroke-width="0.5"/><line x1="34.4782" y1="-13.5179" x2="-17.7272" y2="38.6875" fill="none" stroke="#636363" stroke-miterlimit="10" stroke-width="0.5"/><line x1="34.5789" y1="-4.1434" x2="-4.7128" y2="35.1483" fill="none" stroke="#636363" stroke-miterlimit="10" stroke-width="0.5"/></g></svg>