<svg xmlns="http://www.w3.org/2000/svg" width="32" height="32" viewBox="0 0 32 32"><title>le-shine</title><g id="Layer_4" data-name="Layer 4"><g id="IUVtNI.tif"><path d="M5.3007,3.3011a1.6908,1.6908,0,0,0,.6755.5422.0662.0662,0,0,0,.0246.0063c.1525.0187.2978.1893.4281.1192.1476-.0794.0352-.2772.0563-.4216a.5853.5853,0,0,1,.8233-.4727c.2288.0939.4813.0968.6664.3262a.7177.7177,0,0,1,.1756.5567.3284.3284,0,0,0,.1328.3686.6839.6839,0,0,1,.1746.7258c-.141.26-.3962.2512-.6473.2621-.089.0039-.25-.134-.2637.0531-.0106.1479.1608.1126.2637.1219A.9447.9447,0,0,1,8.2263,5.6a.2677.2677,0,0,1,.1376.3039.223.223,0,0,1-.2732.17,1.7841,1.7841,0,0,1-.8683-.143c-.1292-.0839-.2345-.1591-.2374-.3294a.2871.2871,0,0,0-.2836-.3011.4237.4237,0,0,1-.2164-.0648c-.1962-.1771-.3755-.3157-.5559.0157a.1036.1036,0,0,1-.14.0268c-.1666-.15-.32-.0751-.4858.001a.1889.1889,0,0,1-.2523-.0569.251.251,0,0,1,.0144-.2637.5926.5926,0,0,1,.6864-.3476,1.3555,1.3555,0,0,0,.2039.0049c.0743-.0008.136-.0258.15-.1083.0152-.089-.047-.1179-.1165-.1383-.0572-.0168-.1157-.03-.1711-.0516-.134-.0516-.27-.1575-.3989-.148-.1553.0115-.0895.2314-.1834.3326-.0868.0935-.15.2168-.3028.1981-.1688-.0207-.152-.1813-.2053-.2889-.06-.1214.0241-.3208-.093-.37-.1154-.049-.2138.1412-.3474.1773-.0578.0156-.1215.0409-.1062.1185.0115.0583.0673.0729.12.0762.24.0149.2674.2362.3667.3834.0441.0654-.0129.1269-.0651.1756-.0591.0552-.1238.1073-.2014.0464a1.1794,1.1794,0,0,0-.4865-.1847.2841.2841,0,0,1-.2015-.1808.1667.1667,0,0,0-.148-.12c-.1016-.0118-.1829-.05-.1887-.1682-.0065-.13.0773-.19.1782-.2527.32-.1986.6352-.4052.9481-.615a.7561.7561,0,0,0,.179-.18c.0548-.0743.1222-.1728.0574-.2556-.0729-.0933-.1535.0129-.2231.0435-.1937.0852-.38.1877-.574.2721-.12.0523-.26.0839-.3416-.0565-.0738-.1267.05-.189.1183-.2743.24-.3013.6178-.4789.764-.8671a1.3989,1.3989,0,0,0,.07-.3462A.2731.2731,0,0,1,4.9762,1.61a1.499,1.499,0,0,0,.3552.184c.1381.0311.0959.1746.0528.28-.1219.2994-.0859.4113.2033.5582a1.7548,1.7548,0,0,0,.6222.2193c.1018.01.1856.03.179.1618-.0053.1071-.0161.183-.15.224a.9792.9792,0,0,1-.7159.0444A.2167.2167,0,0,0,5.3007,3.3011Zm2.3159.8342c.0135-.1459.0367-.3079-.158-.347-.174-.035-.333-.0185-.3844.2127a1.7916,1.7916,0,0,1-.165.37c-.0845.1748-.0361.2679.1609.2368.2242-.0354.4356-.0654.6048.14a.1115.1115,0,0,0,.18.0049c.0587-.0777-.0162-.1254-.0648-.167A.4338.4338,0,0,1,7.6165,4.1352Z"/><path d="M11.0807,5.8739a.568.568,0,0,1-.0586.3143c-.0387.084-.1195.0857-.198.08a.15.15,0,0,1-.1522-.1423c-.0035-.0252-.0027-.0511-.0064-.0762-.0178-.1215.0235-.2943-.1074-.3376-.0992-.0328-.1614.1261-.2357.2051a.695.695,0,0,1-.7531.1489c-.1393-.0687-.1662-.1777-.0318-.2738a1.43,1.43,0,0,1,.5183-.3079c.2164-.0355.2686-.2394.4541-.3054.1806-.0642.0767-.5988-.1195-.6571a.25.25,0,0,0-.227.0869.5836.5836,0,0,1-.505.1144c-.1566-.0244-.2239-.1219-.113-.2732.05-.0682.0913-.1537.1765-.179.5-.148.6224-.5736.7522-1,.0461-.1513.0152-.4014.2365-.3924.1841.0075.2369.2388.2576.3956a1.2521,1.2521,0,0,0,.9433,1.0466c.1155.0417.2381.0975.178.2538a.2249.2249,0,0,1-.3347.1307c-.1654-.0862-.3486-.0484-.516-.1155-.14-.0562-.1793.0461-.1686.1675a.8149.8149,0,0,0,.5843.632c.183.0349.3627.0873.546.12a.1867.1867,0,0,1,.1634.1948.1962.1962,0,0,1-.16.2265.7858.7858,0,0,1-.5443-.0632,3.1106,3.1106,0,0,0-.38-.144C11.1459,5.6863,11.0011,5.6629,11.0807,5.8739Z"/><path d="M1.1365,6.03c.1023.08.1581.1177.207.163.083.077.1592.16.1024.2876-.054.1215-.1647.1-.2644.1017-.0849.0016-.17.0016-.2549-.0037-.1282-.008-.2973.0441-.3276-.15a.32.32,0,0,1,.2068-.3938c.2815-.0781.198-.1931.08-.3556A.9.9,0,0,1,1.3245,4.2a1.1363,1.1363,0,0,1,.5622-.1076.6338.6338,0,0,1,.5639.561,1.953,1.953,0,0,1,.0258.6321.9921.9921,0,0,1-1.0171.697A1.71,1.71,0,0,0,1.1365,6.03ZM1.85,5.0992c.1844.0435.2-.0641.177-.2172-.0328-.2168-.2441-.3581-.5272-.2166a.6484.6484,0,0,0-.351.6755c.0362.0934.1037.1735.2089.1444.11-.0306.0247-.1154.0094-.1672a.2344.2344,0,0,1,.0525-.2559c.0883-.09.1665-.048.2464.0114C1.7178,5.1123,1.7788,5.0995,1.85,5.0992Z"/><path d="M14.7054,3.9253c.0049.1722-.2922.3162-.4972.2064-.1808-.0969-.2349-.0668-.2649.1244a.295.295,0,0,1-.3009.2616c-.1693-.0008-.2068-.1431-.224-.2889-.0217-.1829-.0807-.2652-.3011-.1829-.3262.1217-.561.04-.6781-.1629-.0774-.1345-.0776-.2317.0823-.3082a1.6287,1.6287,0,0,1,.3025-.1271.4805.4805,0,0,0,.4112-.63.4427.4427,0,0,1,.1532-.4338c.1728-.148.2714-.0962.37.1008a2.5043,2.5043,0,0,0,.72,1.01A.602.602,0,0,1,14.7054,3.9253Z"/><path d="M15.02,4.5592a.4973.4973,0,0,1,.5052.6667c-.0433.1657-.16.1882-.2962.1376-.167-.0621-.3221-.1482-.4723.0426A.1582.1582,0,0,1,14.5442,5.4a.3432.3432,0,0,1-.127-.3163A.6841.6841,0,0,1,15.02,4.5592Z"/><path d="M12.8877,6.25a.5361.5361,0,0,1,.5587.5953c-.02.1357-.07.23-.235.1743a1.2,1.2,0,0,0-.619-.066.2409.2409,0,0,1-.2439-.357A.7143.7143,0,0,1,12.8877,6.25Z"/><path d="M11.7941,6.581a.913.913,0,0,0-.4753.0307c-.1775.0585-.268-.053-.23-.2423a.5008.5008,0,0,1,.4622-.3678.6212.6212,0,0,1,.5375.3207C12.1337,6.47,12.0046,6.592,11.7941,6.581Z"/><path d="M2.1127,6.5693c-.1536-.02-.3807.1051-.4352-.1246-.0517-.2178.2075-.2307.3272-.33.1178-.0974.4363.0219.5052.1619a.2121.2121,0,0,1-.1961.3093C2.2467,6.5843,2.18,6.5752,2.1127,6.5693Z"/></g><g id="IUVtNI.tif-2" data-name="IUVtNI.tif"><path d="M21.134,3.3011a1.6908,1.6908,0,0,0,.6755.5422.0662.0662,0,0,0,.0246.0063c.1525.0187.2978.1893.4281.1192.1476-.0794.0352-.2772.0563-.4216a.5853.5853,0,0,1,.8233-.4727c.2288.0939.4813.0968.6664.3262a.7177.7177,0,0,1,.1756.5567.3284.3284,0,0,0,.1328.3686.6839.6839,0,0,1,.1746.7258c-.141.26-.3962.2512-.6473.2621-.089.0039-.25-.134-.2637.0531-.0106.1479.1608.1126.2637.1219A.9447.9447,0,0,1,24.06,5.6a.2677.2677,0,0,1,.1376.3039.223.223,0,0,1-.2732.17,1.7841,1.7841,0,0,1-.8683-.143c-.1292-.0839-.2345-.1591-.2374-.3294a.2871.2871,0,0,0-.2836-.3011.4237.4237,0,0,1-.2164-.0648c-.1962-.1771-.3755-.3157-.5559.0157a.1036.1036,0,0,1-.14.0268c-.1666-.15-.32-.0751-.4858.001a.1889.1889,0,0,1-.2523-.0569.251.251,0,0,1,.0144-.2637.5926.5926,0,0,1,.6864-.3476,1.3555,1.3555,0,0,0,.2039.0049c.0743-.0008.136-.0258.15-.1083.0152-.089-.047-.1179-.1165-.1383-.0572-.0168-.1157-.03-.1711-.0516-.134-.0516-.27-.1575-.3989-.148-.1553.0115-.0895.2314-.1834.3326-.0868.0935-.15.2168-.3028.1981-.1688-.0207-.152-.1813-.2053-.2889-.06-.1214.0241-.3208-.093-.37-.1154-.049-.2138.1412-.3474.1773-.0578.0156-.1215.0409-.1062.1185.0115.0583.0673.0729.12.0762.24.0149.2674.2362.3667.3834.0441.0654-.0129.1269-.0651.1756-.0591.0552-.1238.1073-.2014.0464a1.1794,1.1794,0,0,0-.4865-.1847.2841.2841,0,0,1-.2015-.1808.1667.1667,0,0,0-.148-.12c-.1016-.0118-.1829-.05-.1887-.1682-.0065-.13.0773-.19.1782-.2527.32-.1986.6352-.4052.9481-.615a.7561.7561,0,0,0,.179-.18c.0548-.0743.1222-.1728.0574-.2556-.0729-.0933-.1535.0129-.2231.0435-.1937.0852-.38.1877-.574.2721-.12.0523-.26.0839-.3416-.0565-.0738-.1267.05-.189.1183-.2743.24-.3013.6178-.4789.764-.8671a1.3989,1.3989,0,0,0,.07-.3462.2731.2731,0,0,1,.4242-.2232,1.499,1.499,0,0,0,.3552.184c.1381.0311.0959.1746.0528.28-.1219.2994-.0859.4113.2033.5582a1.7548,1.7548,0,0,0,.6222.2193c.1018.01.1856.03.179.1618-.0053.1071-.0161.183-.15.224a.9792.9792,0,0,1-.7159.0444A.2167.2167,0,0,0,21.134,3.3011Zm2.3159.8342c.0135-.1459.0367-.3079-.158-.347-.174-.035-.333-.0185-.3844.2127a1.7916,1.7916,0,0,1-.165.37c-.0845.1748-.0361.2679.1609.2368.2242-.0354.4356-.0654.6048.14a.1115.1115,0,0,0,.18.0049c.0587-.0777-.0162-.1254-.0648-.167A.4338.4338,0,0,1,23.45,4.1352Z"/><path d="M26.9141,5.8739a.568.568,0,0,1-.0586.3143c-.0387.084-.1195.0857-.198.08a.15.15,0,0,1-.1522-.1423c-.0035-.0252-.0027-.0511-.0064-.0762-.0178-.1215.0235-.2943-.1074-.3376-.0992-.0328-.1614.1261-.2357.2051a.695.695,0,0,1-.7531.1489c-.1393-.0687-.1662-.1777-.0318-.2738a1.43,1.43,0,0,1,.5183-.3079c.2164-.0355.2686-.2394.4541-.3054.1806-.0642.0767-.5988-.1195-.6571a.25.25,0,0,0-.227.0869.5836.5836,0,0,1-.505.1144c-.1566-.0244-.2239-.1219-.113-.2732.05-.0682.0913-.1537.1765-.179.5-.148.6224-.5736.7522-1,.0461-.1513.0152-.4014.2365-.3924.1841.0075.2369.2388.2576.3956a1.2521,1.2521,0,0,0,.9433,1.0466c.1155.0417.2381.0975.178.2538a.2249.2249,0,0,1-.3347.1307c-.1654-.0862-.3486-.0484-.516-.1155-.14-.0562-.1793.0461-.1686.1675a.8149.8149,0,0,0,.5843.632c.183.0349.3627.0873.546.12a.1867.1867,0,0,1,.1634.1948.1962.1962,0,0,1-.16.2265.7858.7858,0,0,1-.5443-.0632,3.1106,3.1106,0,0,0-.38-.144C26.9792,5.6863,26.8345,5.6629,26.9141,5.8739Z"/><path d="M16.97,6.03c.1023.08.1581.1177.207.163.083.077.1592.16.1024.2876-.054.1215-.1647.1-.2644.1017-.0849.0016-.17.0016-.2549-.0037-.1282-.008-.2973.0441-.3276-.15a.32.32,0,0,1,.2068-.3938c.2815-.0781.198-.1931.08-.3556a.9.9,0,0,1,.4388-1.48,1.1363,1.1363,0,0,1,.5622-.1076.6338.6338,0,0,1,.5639.561,1.953,1.953,0,0,1,.0258.6321.9921.9921,0,0,1-1.0171.697A1.71,1.71,0,0,0,16.97,6.03Zm.7131-.9313c.1844.0435.2-.0641.177-.2172-.0328-.2168-.2441-.3581-.5272-.2166a.6484.6484,0,0,0-.351.6755c.0362.0934.1037.1735.2089.1444.11-.0306.0247-.1154.0094-.1672a.2344.2344,0,0,1,.0525-.2559c.0883-.09.1665-.048.2464.0114C17.5511,5.1123,17.6122,5.0995,17.6829,5.0992Z"/><path d="M30.5387,3.9253c.0049.1722-.2922.3162-.4972.2064-.1808-.0969-.2349-.0668-.2649.1244a.295.295,0,0,1-.3009.2616c-.1693-.0008-.2068-.1431-.224-.2889-.0217-.1829-.0807-.2652-.3011-.1829-.3262.1217-.561.04-.6781-.1629-.0774-.1345-.0776-.2317.0823-.3082a1.6287,1.6287,0,0,1,.3025-.1271.4805.4805,0,0,0,.4112-.63.4427.4427,0,0,1,.1532-.4338c.1728-.148.2714-.0962.37.1008a2.5043,2.5043,0,0,0,.72,1.01A.602.602,0,0,1,30.5387,3.9253Z"/><path d="M30.8531,4.5592a.4973.4973,0,0,1,.5052.6667c-.0433.1657-.16.1882-.2962.1376-.167-.0621-.3221-.1482-.4723.0426A.1582.1582,0,0,1,30.3775,5.4a.3432.3432,0,0,1-.127-.3163A.6841.6841,0,0,1,30.8531,4.5592Z"/><path d="M28.721,6.25a.5361.5361,0,0,1,.5587.5953c-.02.1357-.07.23-.235.1743a1.2,1.2,0,0,0-.619-.066.2409.2409,0,0,1-.2439-.357A.7143.7143,0,0,1,28.721,6.25Z"/><path d="M27.6274,6.581a.913.913,0,0,0-.4753.0307c-.1775.0585-.268-.053-.23-.2423a.5008.5008,0,0,1,.4622-.3678.6212.6212,0,0,1,.5375.3207C27.967,6.47,27.8379,6.592,27.6274,6.581Z"/><path d="M17.9461,6.5693c-.1536-.02-.3807.1051-.4352-.1246-.0517-.2178.2075-.2307.3272-.33.1178-.0974.4363.0219.5052.1619a.2121.2121,0,0,1-.1961.3093C18.08,6.5843,18.0131,6.5752,17.9461,6.5693Z"/></g><g id="IUVtNI.tif-3" data-name="IUVtNI.tif"><path d="M2.2053,13.2489a.568.568,0,0,1-.0586.3143c-.0387.084-.1195.0857-.198.08a.15.15,0,0,1-.1522-.1423c-.0035-.0252-.0027-.0511-.0064-.0762-.0178-.1215.0235-.2943-.1074-.3376-.0992-.0328-.1614.1261-.2357.2051a.695.695,0,0,1-.7531.1489c-.1393-.0687-.1662-.1777-.0318-.2738A1.43,1.43,0,0,1,1.18,12.86c.2164-.0355.2686-.2394.4541-.3054.1806-.0642.0767-.5988-.1195-.6571a.25.25,0,0,0-.227.0869.5836.5836,0,0,1-.505.1144c-.1566-.0244-.2239-.1219-.113-.2732.05-.0682.0913-.1537.1765-.179.5-.148.6224-.5736.7522-1,.0461-.1513.0152-.4014.2365-.3924.1841.0075.2369.2388.2576.3956a1.2521,1.2521,0,0,0,.9433,1.0466c.1155.0417.2381.0975.178.2538a.2249.2249,0,0,1-.3347.1307c-.1654-.0862-.3486-.0484-.516-.1155-.14-.0562-.1793.0461-.1686.1675a.8149.8149,0,0,0,.5843.632c.183.0349.3627.0873.546.12a.1867.1867,0,0,1,.1634.1948.1962.1962,0,0,1-.16.2265.7858.7858,0,0,1-.5443-.0632,3.1106,3.1106,0,0,0-.38-.144C2.27,13.0613,2.1257,13.0379,2.2053,13.2489Z"/><path d="M5.83,11.3c.0049.1722-.2922.3162-.4972.2064-.1808-.0969-.2349-.0668-.2649.1244a.295.295,0,0,1-.3009.2616c-.1693-.0008-.2068-.1431-.224-.2889-.0217-.1829-.0807-.2652-.3011-.1829-.3262.1217-.561.04-.6781-.1629-.0774-.1345-.0776-.2317.0823-.3082a1.6287,1.6287,0,0,1,.3025-.1271.4805.4805,0,0,0,.4112-.63.4427.4427,0,0,1,.1532-.4338c.1728-.148.2714-.0962.37.1008a2.5043,2.5043,0,0,0,.72,1.01A.602.602,0,0,1,5.83,11.3Z"/><path d="M6.1444,11.9342a.4973.4973,0,0,1,.5052.6667c-.0433.1657-.16.1882-.2962.1376-.167-.0621-.3221-.1482-.4723.0426a.1582.1582,0,0,1-.2123-.0056.3432.3432,0,0,1-.127-.3163A.6841.6841,0,0,1,6.1444,11.9342Z"/><path d="M4.0123,13.6247a.5361.5361,0,0,1,.5587.5953c-.02.1357-.07.23-.235.1743a1.2,1.2,0,0,0-.619-.066.2409.2409,0,0,1-.2439-.357A.7143.7143,0,0,1,4.0123,13.6247Z"/><path d="M2.9186,13.956a.913.913,0,0,0-.4753.0307c-.1775.0585-.268-.053-.23-.2423a.5008.5008,0,0,1,.4622-.3678.6212.6212,0,0,1,.5375.3207C3.2583,13.8451,3.1292,13.967,2.9186,13.956Z"/></g><g id="IUVtNI.tif-4" data-name="IUVtNI.tif"><path d="M12.2586,10.6761a1.6908,1.6908,0,0,0,.6755.5422.0662.0662,0,0,0,.0246.0063c.1525.0187.2978.1893.4281.1192.1476-.0794.0352-.2772.0563-.4216a.5853.5853,0,0,1,.8233-.4727c.2288.0939.4813.0968.6664.3262a.7177.7177,0,0,1,.1756.5567.3284.3284,0,0,0,.1328.3686.6839.6839,0,0,1,.1746.7258c-.141.26-.3962.2512-.6473.2621-.089.0039-.25-.134-.2637.0531-.0106.1479.1608.1126.2637.1219a.9447.9447,0,0,1,.4157.1112.2677.2677,0,0,1,.1376.3039.223.223,0,0,1-.2732.17,1.7841,1.7841,0,0,1-.8683-.143c-.1292-.0839-.2345-.1591-.2374-.3294a.2871.2871,0,0,0-.2836-.3011.4237.4237,0,0,1-.2164-.0648c-.1962-.1771-.3755-.3157-.5559.0157a.1036.1036,0,0,1-.14.0268c-.1666-.15-.32-.0751-.4858.001a.1889.1889,0,0,1-.2523-.0569.251.251,0,0,1,.0144-.2637.5926.5926,0,0,1,.6864-.3476,1.3555,1.3555,0,0,0,.2039.0049c.0743-.0008.136-.0258.15-.1083.0152-.089-.047-.1179-.1165-.1383-.0572-.0168-.1157-.03-.1711-.0516-.134-.0516-.27-.1575-.3989-.148-.1553.0115-.0895.2314-.1834.3326-.0868.0935-.15.2168-.3028.1981-.1688-.0207-.152-.1813-.2053-.2889-.06-.1214.0241-.3208-.093-.37-.1154-.049-.2138.1412-.3474.1773-.0578.0156-.1215.0409-.1062.1185.0115.0583.0673.0729.12.0762.24.0149.2674.2362.3667.3834.0441.0654-.0129.1269-.0651.1756-.0591.0552-.1238.1073-.2014.0464a1.1794,1.1794,0,0,0-.4865-.1847.2841.2841,0,0,1-.2015-.1808.1667.1667,0,0,0-.148-.12c-.1016-.0118-.1829-.05-.1887-.1682-.0065-.13.0773-.19.1782-.2527.32-.1986.6352-.4052.9481-.615a.7561.7561,0,0,0,.179-.18c.0548-.0743.1222-.1728.0574-.2556-.0729-.0933-.1535.0129-.2231.0435-.1937.0852-.38.1877-.574.2721-.12.0523-.26.0839-.3416-.0565-.0738-.1267.05-.189.1183-.2743.24-.3013.6178-.4789.764-.8671a1.3989,1.3989,0,0,0,.07-.3462.2731.2731,0,0,1,.4242-.2232,1.499,1.499,0,0,0,.3552.184c.1381.0311.0959.1746.0528.28-.1219.2994-.0859.4113.2033.5582a1.7548,1.7548,0,0,0,.6222.2193c.1018.01.1856.03.179.1618-.0053.1071-.0161.183-.15.224a.9792.9792,0,0,1-.7159.0444A.2167.2167,0,0,0,12.2586,10.6761Zm2.3159.8342c.0135-.1459.0367-.3079-.158-.347-.174-.035-.333-.0185-.3844.2127a1.7916,1.7916,0,0,1-.165.37c-.0845.1748-.0361.2679.1609.2368.2242-.0354.4356-.0654.6048.14a.1115.1115,0,0,0,.18.0049c.0587-.0777-.0162-.1254-.0648-.167A.4338.4338,0,0,1,14.5745,11.51Z"/><path d="M18.0387,13.2489a.568.568,0,0,1-.0586.3143c-.0387.084-.1195.0857-.198.08a.15.15,0,0,1-.1522-.1423c-.0035-.0252-.0027-.0511-.0064-.0762-.0178-.1215.0235-.2943-.1074-.3376-.0992-.0328-.1614.1261-.2357.2051a.695.695,0,0,1-.7531.1489c-.1393-.0687-.1662-.1777-.0318-.2738a1.43,1.43,0,0,1,.5183-.3079c.2164-.0355.2686-.2394.4541-.3054.1806-.0642.0767-.5988-.1195-.6571a.25.25,0,0,0-.227.0869.5836.5836,0,0,1-.505.1144c-.1566-.0244-.2239-.1219-.113-.2732.05-.0682.0913-.1537.1765-.179.5-.148.6224-.5736.7522-1,.0461-.1513.0152-.4014.2365-.3924.1841.0075.2369.2388.2576.3956a1.2521,1.2521,0,0,0,.9433,1.0466c.1155.0417.2381.0975.178.2538a.2249.2249,0,0,1-.3347.1307c-.1654-.0862-.3486-.0484-.516-.1155-.14-.0562-.1793.0461-.1686.1675a.8149.8149,0,0,0,.5843.632c.183.0349.3627.0873.546.12a.1867.1867,0,0,1,.1634.1948.1962.1962,0,0,1-.16.2265.7858.7858,0,0,1-.5443-.0632,3.1106,3.1106,0,0,0-.38-.144C18.1038,13.0613,17.9591,13.0379,18.0387,13.2489Z"/><path d="M8.0944,13.4054c.1023.08.1581.1177.207.163.083.077.1592.16.1024.2876-.054.1215-.1647.1-.2644.1017-.0849.0016-.17.0016-.2549-.0037-.1282-.008-.2973.0441-.3276-.15a.32.32,0,0,1,.2068-.3938c.2815-.0781.198-.1931.08-.3556a.9.9,0,0,1,.4388-1.48,1.1363,1.1363,0,0,1,.5622-.1076.6338.6338,0,0,1,.5639.561,1.953,1.953,0,0,1,.0258.6321.9921.9921,0,0,1-1.0171.697A1.71,1.71,0,0,0,8.0944,13.4054Zm.7131-.9313c.1844.0435.2-.0641.177-.2172-.0328-.2168-.2441-.3581-.5272-.2166a.6484.6484,0,0,0-.351.6755c.0362.0934.1037.1735.2089.1444.11-.0306.0247-.1154.0094-.1672a.2344.2344,0,0,1,.0525-.2559c.0883-.09.1665-.048.2464.0114C8.6757,12.4873,8.7367,12.4745,8.8075,12.4742Z"/><path d="M21.6633,11.3c.0049.1722-.2922.3162-.4972.2064-.1808-.0969-.2349-.0668-.2649.1244a.295.295,0,0,1-.3009.2616c-.1693-.0008-.2068-.1431-.224-.2889-.0217-.1829-.0807-.2652-.3011-.1829-.3262.1217-.561.04-.6781-.1629-.0774-.1345-.0776-.2317.0823-.3082a1.6287,1.6287,0,0,1,.3025-.1271.4805.4805,0,0,0,.4112-.63.4427.4427,0,0,1,.1532-.4338c.1728-.148.2714-.0962.37.1008a2.5043,2.5043,0,0,0,.72,1.01A.602.602,0,0,1,21.6633,11.3Z"/><path d="M21.9777,11.9342a.4973.4973,0,0,1,.5052.6667c-.0433.1657-.16.1882-.2962.1376-.167-.0621-.3221-.1482-.4723.0426a.1582.1582,0,0,1-.2123-.0056.3432.3432,0,0,1-.127-.3163A.6841.6841,0,0,1,21.9777,11.9342Z"/><path d="M19.8456,13.6247a.5361.5361,0,0,1,.5587.5953c-.02.1357-.07.23-.235.1743a1.2,1.2,0,0,0-.619-.066.2409.2409,0,0,1-.2439-.357A.7143.7143,0,0,1,19.8456,13.6247Z"/><path d="M18.752,13.956a.913.913,0,0,0-.4753.0307c-.1775.0585-.268-.053-.23-.2423a.5008.5008,0,0,1,.4622-.3678.6212.6212,0,0,1,.5375.3207C19.0916,13.8451,18.9625,13.967,18.752,13.956Z"/><path d="M9.0707,13.9443c-.1536-.02-.3807.1051-.4352-.1246-.0517-.2178.2075-.2307.3272-.33.1178-.0974.4363.0219.5052.1619a.2121.2121,0,0,1-.1961.3093C9.2046,13.9593,9.1377,13.95,9.0707,13.9443Z"/></g><g id="IUVtNI.tif-5" data-name="IUVtNI.tif"><path d="M27.9986,10.6761a1.6908,1.6908,0,0,0,.6755.5422.0662.0662,0,0,0,.0246.0063c.1525.0187.2978.1893.4281.1192.1476-.0794.0352-.2772.0563-.4216a.5853.5853,0,0,1,.8233-.4727c.2288.0939.4813.0968.6664.3262a.7177.7177,0,0,1,.1756.5567.3284.3284,0,0,0,.1328.3686.6839.6839,0,0,1,.1746.7258c-.141.26-.3962.2512-.6473.2621-.089.0039-.25-.134-.2637.0531-.0106.1479.1608.1126.2637.1219a.9447.9447,0,0,1,.4157.1112.2677.2677,0,0,1,.1376.3039.223.223,0,0,1-.2732.17,1.7841,1.7841,0,0,1-.8683-.143c-.1292-.0839-.2345-.1591-.2374-.3294a.2871.2871,0,0,0-.2836-.3011.4237.4237,0,0,1-.2164-.0648c-.1962-.1771-.3755-.3157-.5559.0157a.1036.1036,0,0,1-.14.0268c-.1666-.15-.32-.0751-.4858.001a.1889.1889,0,0,1-.2523-.0569.251.251,0,0,1,.0144-.2637.5926.5926,0,0,1,.6864-.3476,1.3555,1.3555,0,0,0,.2039.0049c.0743-.0008.136-.0258.15-.1083.0152-.089-.047-.1179-.1165-.1383-.0572-.0168-.1157-.03-.1711-.0516-.134-.0516-.27-.1575-.3989-.148-.1553.0115-.0895.2314-.1834.3326-.0868.0935-.15.2168-.3028.1981-.1688-.0207-.152-.1813-.2053-.2889-.06-.1214.0241-.3208-.093-.37-.1154-.049-.2138.1412-.3474.1773-.0578.0156-.1215.0409-.1062.1185.0115.0583.0673.0729.12.0762.24.0149.2674.2362.3667.3834.0441.0654-.0129.1269-.0651.1756-.0591.0552-.1238.1073-.2014.0464a1.1794,1.1794,0,0,0-.4865-.1847.2841.2841,0,0,1-.2015-.1808.1667.1667,0,0,0-.148-.12c-.1016-.0118-.1829-.05-.1887-.1682-.0065-.13.0773-.19.1782-.2527.32-.1986.6352-.4052.9481-.615a.7561.7561,0,0,0,.179-.18c.0548-.0743.1222-.1728.0574-.2556-.0729-.0933-.1535.0129-.2231.0435-.1937.0852-.38.1877-.574.2721-.12.0523-.26.0839-.3416-.0565-.0738-.1267.05-.189.1183-.2743.24-.3013.6178-.4789.764-.8671a1.3989,1.3989,0,0,0,.07-.3462.2731.2731,0,0,1,.4242-.2232,1.499,1.499,0,0,0,.3552.184c.1381.0311.0959.1746.0528.28-.1219.2994-.0859.4113.2033.5582a1.7548,1.7548,0,0,0,.6222.2193c.1018.01.1856.03.179.1618-.0053.1071-.0161.183-.15.224a.9792.9792,0,0,1-.7159.0444A.2167.2167,0,0,0,27.9986,10.6761Zm2.3159.8342c.0135-.1459.0367-.3079-.158-.347-.174-.035-.333-.0185-.3844.2127a1.7916,1.7916,0,0,1-.165.37c-.0845.1748-.0361.2679.1609.2368.2242-.0354.4356-.0654.6048.14a.1115.1115,0,0,0,.18.0049c.0587-.0777-.0162-.1254-.0648-.167A.4338.4338,0,0,1,30.3145,11.51Z"/><path d="M23.8344,13.4054c.1023.08.1581.1177.207.163.083.077.1592.16.1024.2876-.054.1215-.1647.1-.2644.1017-.0849.0016-.17.0016-.2549-.0037-.1282-.008-.2973.0441-.3276-.15a.32.32,0,0,1,.2068-.3938c.2815-.0781.198-.1931.08-.3556a.9.9,0,0,1,.4388-1.48,1.1363,1.1363,0,0,1,.5622-.1076.6338.6338,0,0,1,.5639.561,1.953,1.953,0,0,1,.0258.6321.9921.9921,0,0,1-1.0171.697A1.71,1.71,0,0,0,23.8344,13.4054Zm.7131-.9313c.1844.0435.2-.0641.177-.2172-.0328-.2168-.2441-.3581-.5272-.2166a.6484.6484,0,0,0-.351.6755c.0362.0934.1037.1735.2089.1444.11-.0306.0247-.1154.0094-.1672a.2344.2344,0,0,1,.0525-.2559c.0883-.09.1665-.048.2464.0114C24.4157,12.4873,24.4767,12.4745,24.5475,12.4742Z"/><path d="M24.8107,13.9443c-.1536-.02-.3807.1051-.4352-.1246-.0517-.2178.2075-.2307.3272-.33.1178-.0974.4363.0219.5052.1619a.2121.2121,0,0,1-.1961.3093C24.9446,13.9593,24.8777,13.95,24.8107,13.9443Z"/></g><g id="IUVtNI.tif-6" data-name="IUVtNI.tif"><path d="M5.3007,19.5511a1.6908,1.6908,0,0,0,.6755.5422.0662.0662,0,0,0,.0246.0063c.1525.0187.2978.1893.4281.1192.1476-.0794.0352-.2772.0563-.4216a.5853.5853,0,0,1,.8233-.4727c.2288.0939.4813.0968.6664.3262a.7177.7177,0,0,1,.1756.5567.3284.3284,0,0,0,.1328.3686.6839.6839,0,0,1,.1746.7258c-.141.26-.3962.2512-.6473.2621-.089.0039-.25-.134-.2637.0531-.0106.1479.1608.1126.2637.1219a.9447.9447,0,0,1,.4157.1112.2677.2677,0,0,1,.1376.3039.223.223,0,0,1-.2732.17,1.7841,1.7841,0,0,1-.8683-.143c-.1292-.0839-.2345-.1591-.2374-.3294a.2871.2871,0,0,0-.2836-.3011.4237.4237,0,0,1-.2164-.0648c-.1962-.1771-.3755-.3157-.5559.0157a.1036.1036,0,0,1-.14.0268c-.1666-.15-.32-.0751-.4858.001a.1889.1889,0,0,1-.2523-.0569.251.251,0,0,1,.0144-.2637.5926.5926,0,0,1,.6864-.3476,1.3555,1.3555,0,0,0,.2039.0049c.0743-.0008.136-.0258.15-.1083.0152-.089-.047-.1179-.1165-.1383-.0572-.0168-.1157-.03-.1711-.0516-.134-.0516-.27-.1575-.3989-.148-.1553.0115-.0895.2314-.1834.3326-.0868.0935-.15.2168-.3028.1981-.1688-.0207-.152-.1813-.2053-.2889-.06-.1214.0241-.3208-.093-.37-.1154-.049-.2138.1412-.3474.1773-.0578.0156-.1215.0409-.1062.1185.0115.0583.0673.0729.12.0762.24.0149.2674.2362.3667.3834.0441.0654-.0129.1269-.0651.1756-.0591.0552-.1238.1073-.2014.0464a1.1794,1.1794,0,0,0-.4865-.1847.2841.2841,0,0,1-.2015-.1808.1667.1667,0,0,0-.148-.12c-.1016-.0118-.1829-.05-.1887-.1682-.0065-.13.0773-.19.1782-.2527.32-.1986.6352-.4052.9481-.615a.7561.7561,0,0,0,.179-.18c.0548-.0743.1222-.1728.0574-.2556-.0729-.0933-.1535.0129-.2231.0435-.1937.0852-.38.1877-.574.2721-.12.0523-.26.0839-.3416-.0565-.0738-.1267.05-.189.1183-.2743.24-.3013.6178-.4789.764-.8671a1.3989,1.3989,0,0,0,.07-.3462.2731.2731,0,0,1,.4242-.2232,1.499,1.499,0,0,0,.3552.184c.1381.0311.0959.1746.0528.28-.1219.2994-.0859.4113.2033.5582a1.7548,1.7548,0,0,0,.6222.2193c.1018.01.1856.03.179.1618-.0053.1071-.0161.183-.15.224a.9792.9792,0,0,1-.7159.0444A.2167.2167,0,0,0,5.3007,19.5511Zm2.3159.8342c.0135-.1459.0367-.3079-.158-.347-.174-.035-.333-.0185-.3844.2127a1.7916,1.7916,0,0,1-.165.37c-.0845.1748-.0361.2679.1609.2368.2242-.0354.4356-.0654.6048.14a.1115.1115,0,0,0,.18.0049c.0587-.0777-.0162-.1254-.0648-.167A.4338.4338,0,0,1,7.6165,20.3852Z"/><path d="M11.0807,22.1239a.568.568,0,0,1-.0586.3143c-.0387.084-.1195.0857-.198.08a.15.15,0,0,1-.1522-.1423c-.0035-.0252-.0027-.0511-.0064-.0762-.0178-.1215.0235-.2943-.1074-.3376-.0992-.0328-.1614.1261-.2357.2051a.695.695,0,0,1-.7531.1489c-.1393-.0687-.1662-.1777-.0318-.2738a1.43,1.43,0,0,1,.5183-.3079c.2164-.0355.2686-.2394.4541-.3054.1806-.0642.0767-.5988-.1195-.6571a.25.25,0,0,0-.227.0869.5836.5836,0,0,1-.505.1144c-.1566-.0244-.2239-.1219-.113-.2732.05-.0682.0913-.1537.1765-.179.5-.148.6224-.5736.7522-1,.0461-.1513.0152-.4014.2365-.3924.1841.0075.2369.2388.2576.3956a1.2521,1.2521,0,0,0,.9433,1.0466c.1155.0417.2381.0975.178.2538a.2249.2249,0,0,1-.3347.1307c-.1654-.0862-.3486-.0484-.516-.1155-.14-.0562-.1793.0461-.1686.1675a.8149.8149,0,0,0,.5843.632c.183.0349.3627.0873.546.12a.1867.1867,0,0,1,.1634.1948.1962.1962,0,0,1-.16.2265.7858.7858,0,0,1-.5443-.0632,3.1106,3.1106,0,0,0-.38-.144C11.1459,21.9363,11.0011,21.9129,11.0807,22.1239Z"/><path d="M1.1365,22.28c.1023.08.1581.1177.207.163.083.077.1592.16.1024.2876-.054.1215-.1647.1-.2644.1017-.0849.0016-.17.0016-.2549-.0037-.1282-.008-.2973.0441-.3276-.15a.32.32,0,0,1,.2068-.3938c.2815-.0781.198-.1931.08-.3556a.9.9,0,0,1,.4388-1.48,1.1363,1.1363,0,0,1,.5622-.1076.6338.6338,0,0,1,.5639.561,1.953,1.953,0,0,1,.0258.6321.9921.9921,0,0,1-1.0171.697A1.71,1.71,0,0,0,1.1365,22.28Zm.7131-.9313c.1844.0435.2-.0641.177-.2172-.0328-.2168-.2441-.3581-.5272-.2166a.6484.6484,0,0,0-.351.6755c.0362.0934.1037.1735.2089.1444.11-.0306.0247-.1154.0094-.1672a.2344.2344,0,0,1,.0525-.2559c.0883-.09.1665-.048.2464.0114C1.7178,21.3623,1.7788,21.3495,1.85,21.3492Z"/><path d="M14.7054,20.1753c.0049.1722-.2922.3162-.4972.2064-.1808-.0969-.2349-.0668-.2649.1244a.295.295,0,0,1-.3009.2616c-.1693-.0008-.2068-.1431-.224-.2889-.0217-.1829-.0807-.2652-.3011-.1829-.3262.1217-.561.04-.6781-.1629-.0774-.1345-.0776-.2317.0823-.3082a1.6287,1.6287,0,0,1,.3025-.1271.4805.4805,0,0,0,.4112-.63.4427.4427,0,0,1,.1532-.4338c.1728-.148.2714-.0962.37.1008a2.5043,2.5043,0,0,0,.72,1.01A.602.602,0,0,1,14.7054,20.1753Z"/><path d="M15.02,20.8092a.4973.4973,0,0,1,.5052.6667c-.0433.1657-.16.1882-.2962.1376-.167-.0621-.3221-.1482-.4723.0426a.1582.1582,0,0,1-.2123-.0056.3432.3432,0,0,1-.127-.3163A.6841.6841,0,0,1,15.02,20.8092Z"/><path d="M12.8877,22.5a.5361.5361,0,0,1,.5587.5953c-.02.1357-.07.23-.235.1743a1.2,1.2,0,0,0-.619-.066.2409.2409,0,0,1-.2439-.357A.7143.7143,0,0,1,12.8877,22.5Z"/><path d="M11.7941,22.831a.913.913,0,0,0-.4753.0307c-.1775.0585-.268-.053-.23-.2423a.5008.5008,0,0,1,.4622-.3678.6212.6212,0,0,1,.5375.3207C12.1337,22.72,12.0046,22.842,11.7941,22.831Z"/><path d="M2.1127,22.8193c-.1536-.02-.3807.1051-.4352-.1246-.0517-.2178.2075-.2307.3272-.33.1178-.0974.4363.0219.5052.1619a.2121.2121,0,0,1-.1961.3093C2.2467,22.8343,2.18,22.8252,2.1127,22.8193Z"/></g><g id="IUVtNI.tif-7" data-name="IUVtNI.tif"><path d="M21.134,19.5511a1.6908,1.6908,0,0,0,.6755.5422.0662.0662,0,0,0,.0246.0063c.1525.0187.2978.1893.4281.1192.1476-.0794.0352-.2772.0563-.4216a.5853.5853,0,0,1,.8233-.4727c.2288.0939.4813.0968.6664.3262a.7177.7177,0,0,1,.1756.5567.3284.3284,0,0,0,.1328.3686.6839.6839,0,0,1,.1746.7258c-.141.26-.3962.2512-.6473.2621-.089.0039-.25-.134-.2637.0531-.0106.1479.1608.1126.2637.1219a.9447.9447,0,0,1,.4157.1112.2677.2677,0,0,1,.1376.3039.223.223,0,0,1-.2732.17,1.7841,1.7841,0,0,1-.8683-.143c-.1292-.0839-.2345-.1591-.2374-.3294a.2871.2871,0,0,0-.2836-.3011.4237.4237,0,0,1-.2164-.0648c-.1962-.1771-.3755-.3157-.5559.0157a.1036.1036,0,0,1-.14.0268c-.1666-.15-.32-.0751-.4858.001a.1889.1889,0,0,1-.2523-.0569.251.251,0,0,1,.0144-.2637.5926.5926,0,0,1,.6864-.3476,1.3555,1.3555,0,0,0,.2039.0049c.0743-.0008.136-.0258.15-.1083.0152-.089-.047-.1179-.1165-.1383-.0572-.0168-.1157-.03-.1711-.0516-.134-.0516-.27-.1575-.3989-.148-.1553.0115-.0895.2314-.1834.3326-.0868.0935-.15.2168-.3028.1981-.1688-.0207-.152-.1813-.2053-.2889-.06-.1214.0241-.3208-.093-.37-.1154-.049-.2138.1412-.3474.1773-.0578.0156-.1215.0409-.1062.1185.0115.0583.0673.0729.12.0762.24.0149.2674.2362.3667.3834.0441.0654-.0129.1269-.0651.1756-.0591.0552-.1238.1073-.2014.0464a1.1794,1.1794,0,0,0-.4865-.1847.2841.2841,0,0,1-.2015-.1808.1667.1667,0,0,0-.148-.12c-.1016-.0118-.1829-.05-.1887-.1682-.0065-.13.0773-.19.1782-.2527.32-.1986.6352-.4052.9481-.615a.7561.7561,0,0,0,.179-.18c.0548-.0743.1222-.1728.0574-.2556-.0729-.0933-.1535.0129-.2231.0435-.1937.0852-.38.1877-.574.2721-.12.0523-.26.0839-.3416-.0565-.0738-.1267.05-.189.1183-.2743.24-.3013.6178-.4789.764-.8671a1.3989,1.3989,0,0,0,.07-.3462.2731.2731,0,0,1,.4242-.2232,1.499,1.499,0,0,0,.3552.184c.1381.0311.0959.1746.0528.28-.1219.2994-.0859.4113.2033.5582a1.7548,1.7548,0,0,0,.6222.2193c.1018.01.1856.03.179.1618-.0053.1071-.0161.183-.15.224a.9792.9792,0,0,1-.7159.0444A.2167.2167,0,0,0,21.134,19.5511Zm2.3159.8342c.0135-.1459.0367-.3079-.158-.347-.174-.035-.333-.0185-.3844.2127a1.7916,1.7916,0,0,1-.165.37c-.0845.1748-.0361.2679.1609.2368.2242-.0354.4356-.0654.6048.14a.1115.1115,0,0,0,.18.0049c.0587-.0777-.0162-.1254-.0648-.167A.4338.4338,0,0,1,23.45,20.3852Z"/><path d="M26.9141,22.1239a.568.568,0,0,1-.0586.3143c-.0387.084-.1195.0857-.198.08a.15.15,0,0,1-.1522-.1423c-.0035-.0252-.0027-.0511-.0064-.0762-.0178-.1215.0235-.2943-.1074-.3376-.0992-.0328-.1614.1261-.2357.2051a.695.695,0,0,1-.7531.1489c-.1393-.0687-.1662-.1777-.0318-.2738a1.43,1.43,0,0,1,.5183-.3079c.2164-.0355.2686-.2394.4541-.3054.1806-.0642.0767-.5988-.1195-.6571a.25.25,0,0,0-.227.0869.5836.5836,0,0,1-.505.1144c-.1566-.0244-.2239-.1219-.113-.2732.05-.0682.0913-.1537.1765-.179.5-.148.6224-.5736.7522-1,.0461-.1513.0152-.4014.2365-.3924.1841.0075.2369.2388.2576.3956a1.2521,1.2521,0,0,0,.9433,1.0466c.1155.0417.2381.0975.178.2538a.2249.2249,0,0,1-.3347.1307c-.1654-.0862-.3486-.0484-.516-.1155-.14-.0562-.1793.0461-.1686.1675a.8149.8149,0,0,0,.5843.632c.183.0349.3627.0873.546.12a.1867.1867,0,0,1,.1634.1948.1962.1962,0,0,1-.16.2265.7858.7858,0,0,1-.5443-.0632,3.1106,3.1106,0,0,0-.38-.144C26.9792,21.9363,26.8345,21.9129,26.9141,22.1239Z"/><path d="M16.97,22.28c.1023.08.1581.1177.207.163.083.077.1592.16.1024.2876-.054.1215-.1647.1-.2644.1017-.0849.0016-.17.0016-.2549-.0037-.1282-.008-.2973.0441-.3276-.15a.32.32,0,0,1,.2068-.3938c.2815-.0781.198-.1931.08-.3556a.9.9,0,0,1,.4388-1.48,1.1363,1.1363,0,0,1,.5622-.1076.6338.6338,0,0,1,.5639.561,1.953,1.953,0,0,1,.0258.6321.9921.9921,0,0,1-1.0171.697A1.71,1.71,0,0,0,16.97,22.28Zm.7131-.9313c.1844.0435.2-.0641.177-.2172-.0328-.2168-.2441-.3581-.5272-.2166a.6484.6484,0,0,0-.351.6755c.0362.0934.1037.1735.2089.1444.11-.0306.0247-.1154.0094-.1672a.2344.2344,0,0,1,.0525-.2559c.0883-.09.1665-.048.2464.0114C17.5511,21.3623,17.6122,21.3495,17.6829,21.3492Z"/><path d="M30.5387,20.1753c.0049.1722-.2922.3162-.4972.2064-.1808-.0969-.2349-.0668-.2649.1244a.295.295,0,0,1-.3009.2616c-.1693-.0008-.2068-.1431-.224-.2889-.0217-.1829-.0807-.2652-.3011-.1829-.3262.1217-.561.04-.6781-.1629-.0774-.1345-.0776-.2317.0823-.3082a1.6287,1.6287,0,0,1,.3025-.1271.4805.4805,0,0,0,.4112-.63.4427.4427,0,0,1,.1532-.4338c.1728-.148.2714-.0962.37.1008a2.5043,2.5043,0,0,0,.72,1.01A.602.602,0,0,1,30.5387,20.1753Z"/><path d="M30.8531,20.8092a.4973.4973,0,0,1,.5052.6667c-.0433.1657-.16.1882-.2962.1376-.167-.0621-.3221-.1482-.4723.0426a.1582.1582,0,0,1-.2123-.0056.3432.3432,0,0,1-.127-.3163A.6841.6841,0,0,1,30.8531,20.8092Z"/><path d="M28.721,22.5a.5361.5361,0,0,1,.5587.5953c-.02.1357-.07.23-.235.1743a1.2,1.2,0,0,0-.619-.066.2409.2409,0,0,1-.2439-.357A.7143.7143,0,0,1,28.721,22.5Z"/><path d="M27.6274,22.831a.913.913,0,0,0-.4753.0307c-.1775.0585-.268-.053-.23-.2423a.5008.5008,0,0,1,.4622-.3678.6212.6212,0,0,1,.5375.3207C27.967,22.72,27.8379,22.842,27.6274,22.831Z"/><path d="M17.9461,22.8193c-.1536-.02-.3807.1051-.4352-.1246-.0517-.2178.2075-.2307.3272-.33.1178-.0974.4363.0219.5052.1619a.2121.2121,0,0,1-.1961.3093C18.08,22.8343,18.0131,22.8252,17.9461,22.8193Z"/></g><g id="IUVtNI.tif-8" data-name="IUVtNI.tif"><path d="M2.2053,29.4989a.568.568,0,0,1-.0586.3143c-.0387.084-.1195.0857-.198.08a.15.15,0,0,1-.1522-.1423c-.0035-.0252-.0027-.0511-.0064-.0762-.0178-.1215.0235-.2943-.1074-.3376-.0992-.0328-.1614.1261-.2357.2051a.695.695,0,0,1-.7531.1489c-.1393-.0687-.1662-.1777-.0318-.2738A1.43,1.43,0,0,1,1.18,29.11c.2164-.0355.2686-.2394.4541-.3054.1806-.0642.0767-.5988-.1195-.6571a.25.25,0,0,0-.227.0869.5836.5836,0,0,1-.505.1144c-.1566-.0244-.2239-.1219-.113-.2732.05-.0682.0913-.1537.1765-.179.5-.148.6224-.5736.7522-1,.0461-.1513.0152-.4014.2365-.3924.1841.0075.2369.2388.2576.3956a1.2521,1.2521,0,0,0,.9433,1.0466c.1155.0417.2381.0975.178.2538a.2249.2249,0,0,1-.3347.1307c-.1654-.0862-.3486-.0484-.516-.1155-.14-.0562-.1793.0461-.1686.1675a.8149.8149,0,0,0,.5843.632c.183.0349.3627.0873.546.12a.1867.1867,0,0,1,.1634.1948.1962.1962,0,0,1-.16.2265.7858.7858,0,0,1-.5443-.0632,3.1106,3.1106,0,0,0-.38-.144C2.27,29.3113,2.1257,29.2879,2.2053,29.4989Z"/><path d="M5.83,27.55c.0049.1722-.2922.3162-.4972.2064-.1808-.0969-.2349-.0668-.2649.1244a.295.295,0,0,1-.3009.2616c-.1693-.0008-.2068-.1431-.224-.2889-.0217-.1829-.0807-.2652-.3011-.1829-.3262.1217-.561.04-.6781-.1629-.0774-.1345-.0776-.2317.0823-.3082a1.6287,1.6287,0,0,1,.3025-.1271.4805.4805,0,0,0,.4112-.63.4427.4427,0,0,1,.1532-.4338c.1728-.148.2714-.0962.37.1008a2.5043,2.5043,0,0,0,.72,1.01A.602.602,0,0,1,5.83,27.55Z"/><path d="M6.1444,28.1842a.4973.4973,0,0,1,.5052.6667c-.0433.1657-.16.1882-.2962.1376-.167-.0621-.3221-.1482-.4723.0426a.1582.1582,0,0,1-.2123-.0056.3432.3432,0,0,1-.127-.3163A.6841.6841,0,0,1,6.1444,28.1842Z"/><path d="M4.0123,29.8747a.5361.5361,0,0,1,.5587.5953c-.02.1357-.07.23-.235.1743a1.2,1.2,0,0,0-.619-.066.2409.2409,0,0,1-.2439-.357A.7143.7143,0,0,1,4.0123,29.8747Z"/><path d="M2.9186,30.206a.913.913,0,0,0-.4753.0307c-.1775.0585-.268-.053-.23-.2423a.5008.5008,0,0,1,.4622-.3678.6212.6212,0,0,1,.5375.3207C3.2583,30.0951,3.1292,30.217,2.9186,30.206Z"/></g><g id="IUVtNI.tif-9" data-name="IUVtNI.tif"><path d="M12.2586,26.9261a1.6908,1.6908,0,0,0,.6755.5422.0662.0662,0,0,0,.0246.0063c.1525.0187.2978.1893.4281.1192.1476-.0794.0352-.2772.0563-.4216a.5853.5853,0,0,1,.8233-.4727c.2288.0939.4813.0968.6664.3262a.7177.7177,0,0,1,.1756.5567.3284.3284,0,0,0,.1328.3686.6839.6839,0,0,1,.1746.7258c-.141.26-.3962.2512-.6473.2621-.089.0039-.25-.134-.2637.0531-.0106.1479.1608.1126.2637.1219a.9447.9447,0,0,1,.4157.1112.2677.2677,0,0,1,.1376.3039.223.223,0,0,1-.2732.17,1.7841,1.7841,0,0,1-.8683-.143c-.1292-.0839-.2345-.1591-.2374-.3294a.2871.2871,0,0,0-.2836-.3011.4237.4237,0,0,1-.2164-.0648c-.1962-.1771-.3755-.3157-.5559.0157a.1036.1036,0,0,1-.14.0268c-.1666-.15-.32-.0751-.4858.001a.1889.1889,0,0,1-.2523-.0569.251.251,0,0,1,.0144-.2637.5926.5926,0,0,1,.6864-.3476,1.3555,1.3555,0,0,0,.2039.0049c.0743-.0008.136-.0258.15-.1083.0152-.089-.047-.1179-.1165-.1383-.0572-.0168-.1157-.03-.1711-.0516-.134-.0516-.27-.1575-.3989-.148-.1553.0115-.0895.2314-.1834.3326-.0868.0935-.15.2168-.3028.1981-.1688-.0207-.152-.1813-.2053-.2889-.06-.1214.0241-.3208-.093-.37-.1154-.049-.2138.1412-.3474.1773-.0578.0156-.1215.0409-.1062.1185.0115.0583.0673.0729.12.0762.24.0149.2674.2362.3667.3834.0441.0654-.0129.1269-.0651.1756-.0591.0552-.1238.1073-.2014.0464a1.1794,1.1794,0,0,0-.4865-.1847.2841.2841,0,0,1-.2015-.1808.1667.1667,0,0,0-.148-.12c-.1016-.0118-.1829-.05-.1887-.1682-.0065-.13.0773-.19.1782-.2527.32-.1986.6352-.4052.9481-.615a.7561.7561,0,0,0,.179-.18c.0548-.0743.1222-.1728.0574-.2556-.0729-.0933-.1535.0129-.2231.0435-.1937.0852-.38.1877-.574.2721-.12.0523-.26.0839-.3416-.0565-.0738-.1267.05-.189.1183-.2743.24-.3013.6178-.4789.764-.8671a1.3989,1.3989,0,0,0,.07-.3462.2731.2731,0,0,1,.4242-.2232,1.499,1.499,0,0,0,.3552.184c.1381.0311.0959.1746.0528.28-.1219.2994-.0859.4113.2033.5582a1.7548,1.7548,0,0,0,.6222.2193c.1018.01.1856.03.179.1618-.0053.1071-.0161.183-.15.224a.9792.9792,0,0,1-.7159.0444A.2167.2167,0,0,0,12.2586,26.9261Zm2.3159.8342c.0135-.1459.0367-.3079-.158-.347-.174-.035-.333-.0185-.3844.2127a1.7916,1.7916,0,0,1-.165.37c-.0845.1748-.0361.2679.1609.2368.2242-.0354.4356-.0654.6048.14a.1115.1115,0,0,0,.18.0049c.0587-.0777-.0162-.1254-.0648-.167A.4338.4338,0,0,1,14.5745,27.76Z"/><path d="M18.0387,29.4989a.568.568,0,0,1-.0586.3143c-.0387.084-.1195.0857-.198.08a.15.15,0,0,1-.1522-.1423c-.0035-.0252-.0027-.0511-.0064-.0762-.0178-.1215.0235-.2943-.1074-.3376-.0992-.0328-.1614.1261-.2357.2051a.695.695,0,0,1-.7531.1489c-.1393-.0687-.1662-.1777-.0318-.2738a1.43,1.43,0,0,1,.5183-.3079c.2164-.0355.2686-.2394.4541-.3054.1806-.0642.0767-.5988-.1195-.6571a.25.25,0,0,0-.227.0869.5836.5836,0,0,1-.505.1144c-.1566-.0244-.2239-.1219-.113-.2732.05-.0682.0913-.1537.1765-.179.5-.148.6224-.5736.7522-1,.0461-.1513.0152-.4014.2365-.3924.1841.0075.2369.2388.2576.3956a1.2521,1.2521,0,0,0,.9433,1.0466c.1155.0417.2381.0975.178.2538a.2249.2249,0,0,1-.3347.1307c-.1654-.0862-.3486-.0484-.516-.1155-.14-.0562-.1793.0461-.1686.1675a.8149.8149,0,0,0,.5843.632c.183.0349.3627.0873.546.12a.1867.1867,0,0,1,.1634.1948.1962.1962,0,0,1-.16.2265.7858.7858,0,0,1-.5443-.0632,3.1106,3.1106,0,0,0-.38-.144C18.1038,29.3113,17.9591,29.2879,18.0387,29.4989Z"/><path d="M8.0944,29.6554c.1023.08.1581.1177.207.163.083.077.1592.16.1024.2876-.054.1215-.1647.1-.2644.1017-.0849.0016-.17.0016-.2549-.0037-.1282-.008-.2973.0441-.3276-.15a.32.32,0,0,1,.2068-.3938c.2815-.0781.198-.1931.08-.3556a.9.9,0,0,1,.4388-1.48,1.1363,1.1363,0,0,1,.5622-.1076.6338.6338,0,0,1,.5639.561,1.953,1.953,0,0,1,.0258.6321.9921.9921,0,0,1-1.0171.697A1.71,1.71,0,0,0,8.0944,29.6554Zm.7131-.9313c.1844.0435.2-.0641.177-.2172-.0328-.2168-.2441-.3581-.5272-.2166a.6484.6484,0,0,0-.351.6755c.0362.0934.1037.1735.2089.1444.11-.0306.0247-.1154.0094-.1672a.2344.2344,0,0,1,.0525-.2559c.0883-.09.1665-.048.2464.0114C8.6757,28.7373,8.7367,28.7245,8.8075,28.7242Z"/><path d="M21.6633,27.55c.0049.1722-.2922.3162-.4972.2064-.1808-.0969-.2349-.0668-.2649.1244a.295.295,0,0,1-.3009.2616c-.1693-.0008-.2068-.1431-.224-.2889-.0217-.1829-.0807-.2652-.3011-.1829-.3262.1217-.561.04-.6781-.1629-.0774-.1345-.0776-.2317.0823-.3082a1.6287,1.6287,0,0,1,.3025-.1271.4805.4805,0,0,0,.4112-.63.4427.4427,0,0,1,.1532-.4338c.1728-.148.2714-.0962.37.1008a2.5043,2.5043,0,0,0,.72,1.01A.602.602,0,0,1,21.6633,27.55Z"/><path d="M21.9777,28.1842a.4973.4973,0,0,1,.5052.6667c-.0433.1657-.16.1882-.2962.1376-.167-.0621-.3221-.1482-.4723.0426a.1582.1582,0,0,1-.2123-.0056.3432.3432,0,0,1-.127-.3163A.6841.6841,0,0,1,21.9777,28.1842Z"/><path d="M19.8456,29.8747a.5361.5361,0,0,1,.5587.5953c-.02.1357-.07.23-.235.1743a1.2,1.2,0,0,0-.619-.066.2409.2409,0,0,1-.2439-.357A.7143.7143,0,0,1,19.8456,29.8747Z"/><path d="M18.752,30.206a.913.913,0,0,0-.4753.0307c-.1775.0585-.268-.053-.23-.2423a.5008.5008,0,0,1,.4622-.3678.6212.6212,0,0,1,.5375.3207C19.0916,30.0951,18.9625,30.217,18.752,30.206Z"/><path d="M9.0707,30.1943c-.1536-.02-.3807.1051-.4352-.1246-.0517-.2178.2075-.2307.3272-.33.1178-.0974.4363.0219.5052.1619a.2121.2121,0,0,1-.1961.3093C9.2046,30.2093,9.1377,30.2,9.0707,30.1943Z"/></g><g id="IUVtNI.tif-10" data-name="IUVtNI.tif"><path d="M27.9986,26.9261a1.6908,1.6908,0,0,0,.6755.5422.0662.0662,0,0,0,.0246.0063c.1525.0187.2978.1893.4281.1192.1476-.0794.0352-.2772.0563-.4216a.5853.5853,0,0,1,.8233-.4727c.2288.0939.4813.0968.6664.3262a.7177.7177,0,0,1,.1756.5567.3284.3284,0,0,0,.1328.3686.6839.6839,0,0,1,.1746.7258c-.141.26-.3962.2512-.6473.2621-.089.0039-.25-.134-.2637.0531-.0106.1479.1608.1126.2637.1219a.9447.9447,0,0,1,.4157.1112.2677.2677,0,0,1,.1376.3039.223.223,0,0,1-.2732.17,1.7841,1.7841,0,0,1-.8683-.143c-.1292-.0839-.2345-.1591-.2374-.3294a.2871.2871,0,0,0-.2836-.3011.4237.4237,0,0,1-.2164-.0648c-.1962-.1771-.3755-.3157-.5559.0157a.1036.1036,0,0,1-.14.0268c-.1666-.15-.32-.0751-.4858.001a.1889.1889,0,0,1-.2523-.0569.251.251,0,0,1,.0144-.2637.5926.5926,0,0,1,.6864-.3476,1.3555,1.3555,0,0,0,.2039.0049c.0743-.0008.136-.0258.15-.1083.0152-.089-.047-.1179-.1165-.1383-.0572-.0168-.1157-.03-.1711-.0516-.134-.0516-.27-.1575-.3989-.148-.1553.0115-.0895.2314-.1834.3326-.0868.0935-.15.2168-.3028.1981-.1688-.0207-.152-.1813-.2053-.2889-.06-.1214.0241-.3208-.093-.37-.1154-.049-.2138.1412-.3474.1773-.0578.0156-.1215.0409-.1062.1185.0115.0583.0673.0729.12.0762.24.0149.2674.2362.3667.3834.0441.0654-.0129.1269-.0651.1756-.0591.0552-.1238.1073-.2014.0464a1.1794,1.1794,0,0,0-.4865-.1847.2841.2841,0,0,1-.2015-.1808.1667.1667,0,0,0-.148-.12c-.1016-.0118-.1829-.05-.1887-.1682-.0065-.13.0773-.19.1782-.2527.32-.1986.6352-.4052.9481-.615a.7561.7561,0,0,0,.179-.18c.0548-.0743.1222-.1728.0574-.2556-.0729-.0933-.1535.0129-.2231.0435-.1937.0852-.38.1877-.574.2721-.12.0523-.26.0839-.3416-.0565-.0738-.1267.05-.189.1183-.2743.24-.3013.6178-.4789.764-.8671a1.3989,1.3989,0,0,0,.07-.3462.2731.2731,0,0,1,.4242-.2232,1.499,1.499,0,0,0,.3552.184c.1381.0311.0959.1746.0528.28-.1219.2994-.0859.4113.2033.5582a1.7548,1.7548,0,0,0,.6222.2193c.1018.01.1856.03.179.1618-.0053.1071-.0161.183-.15.224a.9792.9792,0,0,1-.7159.0444A.2167.2167,0,0,0,27.9986,26.9261Zm2.3159.8342c.0135-.1459.0367-.3079-.158-.347-.174-.035-.333-.0185-.3844.2127a1.7916,1.7916,0,0,1-.165.37c-.0845.1748-.0361.2679.1609.2368.2242-.0354.4356-.0654.6048.14a.1115.1115,0,0,0,.18.0049c.0587-.0777-.0162-.1254-.0648-.167A.4338.4338,0,0,1,30.3145,27.76Z"/><path d="M23.8344,29.6554c.1023.08.1581.1177.207.163.083.077.1592.16.1024.2876-.054.1215-.1647.1-.2644.1017-.0849.0016-.17.0016-.2549-.0037-.1282-.008-.2973.0441-.3276-.15a.32.32,0,0,1,.2068-.3938c.2815-.0781.198-.1931.08-.3556a.9.9,0,0,1,.4388-1.48,1.1363,1.1363,0,0,1,.5622-.1076.6338.6338,0,0,1,.5639.561,1.953,1.953,0,0,1,.0258.6321.9921.9921,0,0,1-1.0171.697A1.71,1.71,0,0,0,23.8344,29.6554Zm.7131-.9313c.1844.0435.2-.0641.177-.2172-.0328-.2168-.2441-.3581-.5272-.2166a.6484.6484,0,0,0-.351.6755c.0362.0934.1037.1735.2089.1444.11-.0306.0247-.1154.0094-.1672a.2344.2344,0,0,1,.0525-.2559c.0883-.09.1665-.048.2464.0114C24.4157,28.7373,24.4767,28.7245,24.5475,28.7242Z"/><path d="M24.8107,30.1943c-.1536-.02-.3807.1051-.4352-.1246-.0517-.2178.2075-.2307.3272-.33.1178-.0974.4363.0219.5052.1619a.2121.2121,0,0,1-.1961.3093C24.9446,30.2093,24.8777,30.2,24.8107,30.1943Z"/></g></g></svg>