<svg xmlns="http://www.w3.org/2000/svg" width="13" height="13" viewBox="0 0 13 13"><title>le-shine</title><g id="Layer_2" data-name="Layer 2"><path d="M12.8011,5.1552l-.0893-.0018A6.46,6.46,0,0,1,6.7422.8149L6.7129.7306a.2027.2027,0,0,0-.3829,0L6.3006.8149A6.46,6.46,0,0,1,.33,5.1517l-.0893.0018a.2027.2027,0,0,0-.1184.3642l.0712.054A6.46,6.46,0,0,1,2.4729,12.59l-.0259.0855a.2027.2027,0,0,0,.31.2251L2.83,12.85a6.46,6.46,0,0,1,7.38.001l.0733.051a.2027.2027,0,0,0,.31-.225l-.0258-.0855a6.46,6.46,0,0,1,2.2813-7.018l.0712-.054A.2027.2027,0,0,0,12.8011,5.1552ZM6.4792,11a3.5,3.5,0,1,1,3.5-3.5A3.5,3.5,0,0,1,6.4792,11Z"/><circle cx="6.4792" cy="7.5" r="1.5"/></g></svg>