<svg xmlns="http://www.w3.org/2000/svg" width="32" height="32" viewBox="0 0 32 32"><title>le-shine</title><g id="Layer_2" data-name="Layer 2"><line x1="42.2906" y1="-10.2492" x2="-12.3038" y2="44.3452" fill="none" stroke="#636363" stroke-miterlimit="10" stroke-width="0.5"/><line x1="46.8338" y1="-10.2492" x2="-7.7606" y2="44.3452" fill="none" stroke="#636363" stroke-miterlimit="10" stroke-width="0.5"/><line x1="51.377" y1="-10.2492" x2="-3.2174" y2="44.3452" fill="none" stroke="#636363" stroke-miterlimit="10" stroke-width="0.5"/><line x1="55.9202" y1="-10.2492" x2="1.3258" y2="44.3452" fill="none" stroke="#636363" stroke-miterlimit="10" stroke-width="0.5"/><line x1="60.4634" y1="-10.2492" x2="5.869" y2="44.3452" fill="none" stroke="#636363" stroke-miterlimit="10" stroke-width="0.5"/><line x1="65.0067" y1="-10.2492" x2="10.4122" y2="44.3452" fill="none" stroke="#636363" stroke-miterlimit="10" stroke-width="0.5"/><line x1="69.5499" y1="-10.2492" x2="14.9554" y2="44.3452" fill="none" stroke="#636363" stroke-miterlimit="10" stroke-width="0.5"/><line x1="74.0931" y1="-10.2492" x2="19.4986" y2="44.3452" fill="none" stroke="#636363" stroke-miterlimit="10" stroke-width="0.5"/><line x1="10.4881" y1="-10.2492" x2="-44.1063" y2="44.3452" fill="none" stroke="#636363" stroke-miterlimit="10" stroke-width="0.5"/><line x1="15.0313" y1="-10.2492" x2="-39.5631" y2="44.3452" fill="none" stroke="#636363" stroke-miterlimit="10" stroke-width="0.5"/><line x1="19.5746" y1="-10.2492" x2="-35.0199" y2="44.3452" fill="none" stroke="#636363" stroke-miterlimit="10" stroke-width="0.5"/><line x1="24.1178" y1="-10.2492" x2="-30.4767" y2="44.3452" fill="none" stroke="#636363" stroke-miterlimit="10" stroke-width="0.5"/><line x1="28.661" y1="-10.2492" x2="-25.9335" y2="44.3452" fill="none" stroke="#636363" stroke-miterlimit="10" stroke-width="0.5"/><line x1="33.2042" y1="-10.2492" x2="-21.3903" y2="44.3452" fill="none" stroke="#636363" stroke-miterlimit="10" stroke-width="0.5"/><line x1="37.7474" y1="-10.2492" x2="-16.847" y2="44.3452" fill="none" stroke="#636363" stroke-miterlimit="10" stroke-width="0.5"/></g></svg>