<svg xmlns="http://www.w3.org/2000/svg" width="10.9906" height="10.0049" viewBox="0 0 10.9906 10.0049"><title>le-shine</title><g id="Layer_2" data-name="Layer 2"><path d="M10.8081,3.4617h-.0016C8.4383,3.4132,6.4687,2.3557,5.6916.1182l0-.001a.1743.1743,0,0,0-.3293,0L5.36.1224C4.582,2.3581,2.5524,3.4133.1856,3.46H.184a.1743.1743,0,0,0-.1018.3132l.0013.001a5.3606,5.3606,0,0,1,1.94,5.9688l-.0007.0024a.1743.1743,0,0,0,.2663.1936l.0013-.0009a5.5794,5.5794,0,0,1,6.4163.0009h0a.1743.1743,0,0,0,.2664-.1935l-.001-.0032a5.3582,5.3582,0,0,1,1.936-5.9666l.0013-.001A.1743.1743,0,0,0,10.8081,3.4617ZM5.49,8.4875A3.01,3.01,0,1,1,8.5,5.478,3.01,3.01,0,0,1,5.49,8.4875Z"/><circle cx="5.4844" cy="5.4872" r="1.5"/></g></svg>