<svg id="Layer_1" data-name="Layer 1" xmlns="http://www.w3.org/2000/svg" width="15" height="15" viewBox="0 0 15 15"><title>level-crossing</title><path d="M11,13a2,2,0,0,1-1.4-.6L7.5,10.3,5.4,12.4A2,2,0,1,1,2.6,9.6L4.7,7.5,2.6,5.4a1.93,1.93,0,0,1-.0715-2.7285Q2.5633,2.6348,2.6,2.6a1.93,1.93,0,0,1,2.7285-.0715q.0367.0348.0715.0715L7.5,4.7,9.6,2.6a1.93,1.93,0,0,1,2.7285-.0715q.0367.0348.0715.0715a1.93,1.93,0,0,1,.0715,2.7285q-.0348.0367-.0715.0715L10.3,7.5l2.1,2.1A2,2,0,0,1,11,13Z" fill="#fff"/><path d="M8.9,7.5l2.8-2.8a1,1,0,0,0-1.4-1.4L7.5,6.1,4.7,3.3A1,1,0,0,0,3.3,4.7L6.1,7.5,3.3,10.3a1,1,0,0,0,0,1.4A.91.91,0,0,0,4,12a.91.91,0,0,0,.7-.3L7.5,8.9l2.8,2.8a.99.99,0,0,0,1.4-1.4Z" fill="#bfbfbf"/><circle cx="7.5" cy="7.5" r="5.75" fill="none" stroke="#bfbfbf" stroke-miterlimit="10" stroke-width="2"/></svg>