<svg id="Layer_1" data-name="Layer 1" xmlns="http://www.w3.org/2000/svg" width="19" height="19" viewBox="0 0 19 19"><title>new-york-subway</title><path d="M1,9.5A8.5,8.5,0,1,0,9.5,1,8.5,8.5,0,0,0,1,9.5" fill="#337ac7"/><path d="M9.5,1A8.5,8.5,0,1,1,1,9.5,8.5,8.5,0,0,1,9.5,1m0-1A9.5,9.5,0,1,0,19,9.5,9.5,9.5,0,0,0,9.5,0Z" fill="#fff" opacity="0.75" style="isolation:isolate"/><path d="M0,0H19V19H0Z" fill="none"/><path d="M1,9.5A8.5,8.5,0,1,0,9.5,1,8.5,8.5,0,0,0,1,9.5" fill="none"/><path d="M6.07,7.1372h.9238v4.7373h-.99L4.0711,8.4964H4.0579v3.3781H3.1342V7.1372H4.1767l1.88,3.2989H6.07Z" fill="#fff"/><path d="M10.17,11.8746H9.18V10.0866L7.5441,7.1372H8.712l.9831,2.0587.9369-2.0587h1.1217L10.17,10.1Z" fill="#fff"/><path d="M14.8763,8.6877A.9632.9632,0,0,0,13.827,7.87c-.4749,0-1.1744.3167-1.1744,1.656,0,.851.3368,1.6165,1.1744,1.6165a1.0112,1.0112,0,0,0,1.0492-.8907h.99A1.9724,1.9724,0,0,1,13.8077,12c-1.26,0-2.1645-.8513-2.1645-2.4874,0-1.6563.9568-2.5008,2.1774-2.5008a1.8844,1.8844,0,0,1,2.0453,1.6759Z" fill="#fff"/></svg>