<svg id="Layer_1" data-name="Layer 1" xmlns="http://www.w3.org/2000/svg" width="0.2361in" height="0.2361in" viewBox="0 0 17 17"><title>rail</title><rect width="17" height="17" fill="none"/><path d="M2,1H15a.9448.9448,0,0,1,1,1V15a.9448.9448,0,0,1-1,1H2a.9448.9448,0,0,1-1-1V2A.9448.9448,0,0,1,2,1Z"/><path d="M2,1H15a.9448.9448,0,0,1,1,1V15a.9448.9448,0,0,1-1,1H2a.9448.9448,0,0,1-1-1V2A.9448.9448,0,0,1,2,1Z" fill="#337ac7"/><path d="M12,13.5a.4724.4724,0,0,1-.5.5c-.2,0-.3-.1-.4-.3h0l-.4-.7H6.3l-.4.7h0c0,.2-.2.3-.4.3a.4724.4724,0,0,1-.5-.5c0-.1,0-.2.1-.2h0l1-2h0c.1-.2.2-.3.4-.3a.4724.4724,0,0,1,.5.5v.2l-.2.3h3.4l-.2-.3a.4193.4193,0,0,1,.3-.6.4809.4809,0,0,1,.6.2h0l1,2h0C12,13.3,12,13.4,12,13.5ZM11,3H6A.9448.9448,0,0,0,5,4V9a.9448.9448,0,0,0,1,1h5a.9448.9448,0,0,0,1-1V4A.9448.9448,0,0,0,11,3ZM6.5,9A.5.5,0,1,1,7,8.5.4724.4724,0,0,1,6.5,9Zm0-2A.4724.4724,0,0,1,6,6.5v-2A.4724.4724,0,0,1,6.5,4H8.3V7Zm4,2a.5.5,0,1,1,.5-.5A.4724.4724,0,0,1,10.5,9ZM11,6.5a.4724.4724,0,0,1-.5.5H8.7V4h1.8a.4724.4724,0,0,1,.5.5Z" fill="#fff"/></svg>