<svg id="Layer_1" data-name="Layer 1" xmlns="http://www.w3.org/2000/svg" width="0.2361in" height="0.2361in" viewBox="0 0 17 17"><title>rail-light</title><rect width="17" height="17" fill="none"/><path d="M2,1H15a.9448.9448,0,0,1,1,1V15a.9448.9448,0,0,1-1,1H2a.9448.9448,0,0,1-1-1V2A.9448.9448,0,0,1,2,1Z"/><path d="M2,1H15a.9448.9448,0,0,1,1,1V15a.9448.9448,0,0,1-1,1H2a.9448.9448,0,0,1-1-1V2A.9448.9448,0,0,1,2,1Z" fill="#337ac7"/><path d="M7,3A.5.5,0,0,0,7,4H8V5H7A.9794.9794,0,0,0,6,6V9a1.9588,1.9588,0,0,0,2,2H9a1.9588,1.9588,0,0,0,2-2V6a.9794.9794,0,0,0-1-1H9V4h1a.5.5,0,0,0,0-1ZM8.5,6l1.5.5V8H7V6.5Zm0,3a.5.5,0,1,1-.5.5A.4724.4724,0,0,1,8.5,9ZM5.8,11.5,5,14H6.5l.3-1h3.3l.3,1H12l-.8-2.5H9.7l.1.5H7.2l.2-.5Z" fill="#fff"/></svg>