<svg id="Layer_1" data-name="Layer 1" xmlns="http://www.w3.org/2000/svg" width="0.2361in" height="0.2361in" viewBox="0 0 17 17"><title>rail-metro</title><rect width="17" height="17" fill="none"/><path d="M2,1H15a.9448.9448,0,0,1,1,1V15a.9448.9448,0,0,1-1,1H2a.9448.9448,0,0,1-1-1V2A.9448.9448,0,0,1,2,1Z"/><path d="M2,1H15a.9448.9448,0,0,1,1,1V15a.9448.9448,0,0,1-1,1H2a.9448.9448,0,0,1-1-1V2A.9448.9448,0,0,1,2,1Z" fill="#337ac7"/><path d="M6.5,3a.49.49,0,0,0-.5.5L5,8V9a.9794.9794,0,0,0,1,1h5a.9794.9794,0,0,0,1-1V8L11,3.5a.49.49,0,0,0-.5-.5ZM7,4h3l.5,3h-4ZM6.5,8a.5.5,0,1,1-.5.5A.4724.4724,0,0,1,6.5,8ZM8.2,8h.5c.2,0,.3.1.3.2s-.1.3-.2.3H8.2c-.1,0-.2-.1-.2-.3S8.1,8,8.2,8Zm2.3,0a.5.5,0,1,1-.5.5A.4724.4724,0,0,1,10.5,8ZM6,11,5,14H6.5l.3-1h3.3l.3,1H12l-1-3H9.5l.3,1H7.2l.3-1Z" fill="#fff"/></svg>