<svg id="Layer_1" data-name="Layer 1" xmlns="http://www.w3.org/2000/svg" width="0.3194in" height="0.3056in" viewBox="0 0 23 22"><title>ro-communal-5</title><g id="Layer_4" data-name="Layer 4"><path d="M11.5,21.5h-.1C4.5,19.9.5,15.9.5,10.5V1A.55.55,0,0,1,.8.5H1c.1,0,.3.1.4.1A5.4092,5.4092,0,0,0,5,2a9.2739,9.2739,0,0,0,2.4-.6A12.9757,12.9757,0,0,1,11.5.5a10.58,10.58,0,0,1,3.7.8A7.6815,7.6815,0,0,0,18,2,5.2046,5.2046,0,0,0,21.6.6c.1-.1.2-.1.4-.1h.2a.55.55,0,0,1,.3.5v9.5c.1,8.2-10.8,11-10.9,11Z" fill="#fff"/><path d="M22.4.1A.6015.6015,0,0,0,22,0a.9078.9078,0,0,0-.7.3A5.0027,5.0027,0,0,1,18,1.5,8.8275,8.8275,0,0,1,15.4.9,11.7482,11.7482,0,0,0,11.5,0,14.2683,14.2683,0,0,0,7.2.9,7.3066,7.3066,0,0,1,5,1.5,5.3282,5.3282,0,0,1,1.7.3.9078.9078,0,0,0,1,0,.6015.6015,0,0,0,.6.1.8746.8746,0,0,0,0,1v9.5C0,16.1,4.1,20.3,11.3,22h.4c3.9-1,11.4-4.7,11.3-11.5V1A.8746.8746,0,0,0,22.4.1ZM1,4V1A6.38,6.38,0,0,0,5,2.5C6.6,2.5,9,1,11.5,1S15.9,2.5,18,2.5A6.0622,6.0622,0,0,0,22,1V4s-.0154.8832-.0281,2H1ZM11.5,21C9.8,20.6,1,18.5,1,10.5V7H21.9622c-.0121,1.51-.0116,3.1044.0378,3.5C22.1,17.7,13.1,20.6,11.5,21Z" fill="#b3b3b3"/></g></svg>