<svg id="Layer_1" data-name="Layer 1" xmlns="http://www.w3.org/2000/svg" width="0.4722in" height="0.3056in" viewBox="0 0 34 22"><title>ro-communal-6</title><g id="Layer_4" data-name="Layer 4"><path d="M17,21.5h-.1c-.1,0-.4-.1-.6-.1C5.8,19.3.5,15.6.5,10.5V1A.55.55,0,0,1,.8.5H1c.1,0,.3.1.4.1.5.6,3.7,1.9,6.6,1.9a14.06,14.06,0,0,0,4.3-1A15.1911,15.1911,0,0,1,17,.5a14.584,14.584,0,0,1,4.6,1,12.9161,12.9161,0,0,0,4.1,1H26A15.37,15.37,0,0,0,32.7.6.3674.3674,0,0,1,33,.5c.1,0,.2,0,.2.1a.5358.5358,0,0,1,.3.4v9.5c.1,4.7-5.5,8.5-16,10.9l-.4.1Z" fill="#fff"/><path d="M33.5.1A.9017.9017,0,0,0,33,0a1.42,1.42,0,0,0-.6.2A14.91,14.91,0,0,1,26,2h-.2a13.7691,13.7691,0,0,1-3.9-.9A13.9562,13.9562,0,0,0,17,0a12.9579,12.9579,0,0,0-4.8,1.1A17.6339,17.6339,0,0,1,8,2,12.9394,12.9394,0,0,1,1.7.3.9078.9078,0,0,0,1,0,.6015.6015,0,0,0,.6.1.8746.8746,0,0,0,0,1v9.5c0,5.4,5.4,9.2,16.1,11.3a1.7591,1.7591,0,0,0,.6.1h.4c.1,0,.2-.1.4-.1C31.2,18.7,34,13.9,34,10.5V1A1.05,1.05,0,0,0,33.5.1ZM1,4V1c.7.7,4,2,7,2s6-2,9-2,5.8,2,8.7,2H26a16.271,16.271,0,0,0,7-2V4s-.0154.8832-.0281,2H1ZM17,21c-1.7-.4-16-2.5-16-10.5V7H32.9622c-.0121,1.51-.0116,3.1044.0378,3.5C33.1,17.7,18.6,20.6,17,21Z" fill="#b3b3b3"/></g></svg>