<svg id="Layer_1" data-name="Layer 1" xmlns="http://www.w3.org/2000/svg" width="0.5278in" height="0.1944in" viewBox="0 0 38 14"><title>sk-road-5</title><g id="not_needed" data-name="not needed"><path d="M37.5,11A2.4757,2.4757,0,0,1,35,13.5H3A2.4757,2.4757,0,0,1,.5,11V3A2.4757,2.4757,0,0,1,3,.5H35A2.4757,2.4757,0,0,1,37.5,3Z" fill="#fff"/><path d="M35,1a2.0941,2.0941,0,0,1,2,2.1v8A1.9226,1.9226,0,0,1,35,13H3a1.9226,1.9226,0,0,1-2-1.9v-8A2.0941,2.0941,0,0,1,3,1H35m0-1H3A3.0967,3.0967,0,0,0,0,3.1v8A2.9892,2.9892,0,0,0,3,14H35a2.9252,2.9252,0,0,0,3-2.9v-8A3.0312,3.0312,0,0,0,35,0Z" fill="#b3b3b3"/></g></svg>