<svg id="Layer_1" data-name="Layer 1" xmlns="http://www.w3.org/2000/svg" width="26" height="40" viewBox="0 0 26 40"><title>us-interstate-truck-3</title><path d="M23,10a5.5585,5.5585,0,0,1,2,4v2c0,9.3-12,12-12,12S1,25.3,1,16V14a5.5585,5.5585,0,0,1,2-4,7.028,7.028,0,0,0,5,2,7.028,7.028,0,0,0,5-2,7.25,7.25,0,0,0,10,0M3,9a1.4213,1.4213,0,0,0-.6.2A6.4267,6.4267,0,0,0,0,14v2c0,4.2,2.2,7.8,6.5,10.4A21.5386,21.5386,0,0,0,12.8,29h.4a28.8544,28.8544,0,0,0,6.3-2.6C23.8,23.7,26,20.2,26,16V14a6.4267,6.4267,0,0,0-2.4-4.8,1.0482,1.0482,0,0,0-1.3.1,6.2882,6.2882,0,0,1-8.6,0A.9078.9078,0,0,0,13,9h0a.7785.7785,0,0,0-.7.3A6.31,6.31,0,0,1,8,11,6.2592,6.2592,0,0,1,3.8,9.4.91.91,0,0,0,3,9Z" fill="#b3b3b3"/><path d="M1,16c0,9.3,12,12,12,12s12-2.7,12-12V15H1Z" fill="#fff"/><path d="M1,14a5.5585,5.5585,0,0,1,2-4,7.028,7.028,0,0,0,5,2,7.028,7.028,0,0,0,5-2,7.25,7.25,0,0,0,10,0,5.5585,5.5585,0,0,1,2,4Z" fill="#fff"/><path d="M1,14H25v1H1Z" fill="#b3b3b3"/><path d="M5.7,1.9V7h-1V1.9h-1V1H6.6v.9Z" fill="#b3b3b3"/><path d="M9.6,7,8.8,4.5H8.3V7H7.4V1H8.9a1.7458,1.7458,0,0,1,1.2.4,2.2959,2.2959,0,0,1,.4,1.4,3.7513,3.7513,0,0,1-.1,1,1.7937,1.7937,0,0,1-.7.5L10.6,7ZM9.5,2.8V2.5a.3674.3674,0,0,0-.1-.3.7688.7688,0,0,0-.2-.3c-.1,0-.2-.1-.3,0H8.3V3.7h.6a.3674.3674,0,0,0,.3-.1c.1,0,.1-.1.2-.2,0-.1.1-.2.1-.3Z" fill="#b3b3b3"/><path d="M14.3,5.5a1.2683,1.2683,0,0,1-.1.6c-.1.2-.2.3-.3.5a1.5694,1.5694,0,0,1-2.2,0,2.1859,2.1859,0,0,1-.3-.5,1.2683,1.2683,0,0,1-.1-.6V1h.9V5.6c0,.2,0,.4.2.5a.7581.7581,0,0,0,.4.2.52.52,0,0,0,.4-.2.7638.7638,0,0,0,.2-.5V1h.9Z" fill="#b3b3b3"/><path d="M18.2,5.4c0,.2-.1.5-.1.7a.9984.9984,0,0,1-.4.5,2.1859,2.1859,0,0,1-.5.3.7494.7494,0,0,1-.5.1,1.7018,1.7018,0,0,1-.7-.1,1.7556,1.7556,0,0,1-.5-.4.52.52,0,0,1-.2-.4.9015.9015,0,0,1-.1-.5c0-.2-.1-.5-.1-.7V3.1a1.7018,1.7018,0,0,1,.1-.7,4.331,4.331,0,0,1,.1-.5c.1-.1.1-.3.2-.4a.9984.9984,0,0,1,.5-.4.8782.8782,0,0,1,.7-.1,1.2683,1.2683,0,0,1,.6.1c.2.1.3.2.5.3a.55.55,0,0,1,.3.5,1.7018,1.7018,0,0,1,.1.7h-.9V2.3a.3674.3674,0,0,0-.1-.3c0-.1-.1-.1-.2-.2-.1,0-.2-.1-.3-.1a.3674.3674,0,0,0-.3.1c-.1,0-.1.1-.2.2a1.4453,1.4453,0,0,0-.2.7V5.3a1.8539,1.8539,0,0,0,.2.7c0,.1.1.1.2.2.1,0,.2.1.3.1a.6012.6012,0,0,0,.4-.1.0979.0979,0,0,0,.1-.0958V6.1a.3674.3674,0,0,0,.1-.3V5.5Z" fill="#b3b3b3"/><path d="M21.4,7l-1-2.5-.5.9V7H19V1h.9V3.8L21.2,1h1L21,3.5,22.4,7Z" fill="#b3b3b3"/></svg>