<svg id="Layer_1" data-name="Layer 1" xmlns="http://www.w3.org/2000/svg" width="20" height="40" viewBox="0 0 20 40"><title>us-interstate-truck-2</title><path d="M17,10a8.4322,8.4322,0,0,1,2,4v2c0,9.3-9,12-9,12S1,25.4,1,16V14a6.96,6.96,0,0,1,2-4,3.9927,3.9927,0,0,0,3.6,2A3.9939,3.9939,0,0,0,10,10a4.0334,4.0334,0,0,0,3.5,2A4.16,4.16,0,0,0,17,10m0-1h-.1a.752.752,0,0,0-.7.5A3.2817,3.2817,0,0,1,13.5,11a2.9,2.9,0,0,1-2.6-1.5A1.05,1.05,0,0,0,10,9h0a.961.961,0,0,0-.9.6A2.9,2.9,0,0,1,6.5,11,3.0561,3.0561,0,0,1,3.8,9.5c-.1-.3-.4-.4-.7-.5H3a.9078.9078,0,0,0-.7.3A7.7826,7.7826,0,0,0,0,14v2C0,26,9.6,28.9,9.7,29a.6375.6375,0,0,0,.6,0c.1,0,9.7-3,9.7-12.9V14a9.0689,9.0689,0,0,0-2.3-4.7A.9078.9078,0,0,0,17,9Z" fill="#b3b3b3"/><path d="M1,16c0,9.3,9,12,9,12s9-2.7,9-12V15H1Z" fill="#fff"/><path d="M1,14a6.96,6.96,0,0,1,2-4,3.9927,3.9927,0,0,0,3.6,2A3.9939,3.9939,0,0,0,10,10a4.0625,4.0625,0,0,0,7,0,8.4322,8.4322,0,0,1,2,4Z" fill="#fff"/><path d="M1,14H19v1H1Z" fill="#b3b3b3"/><path d="M2.7,1.9V7h-1V1.9H.7V1h3v.9Z" fill="#b3b3b3"/><path d="M6.6,7,5.8,4.5H5.3V7H4.4V1H5.9a1.7458,1.7458,0,0,1,1.2.4,1.5919,1.5919,0,0,1,.3,1.3,3.7513,3.7513,0,0,1-.1,1,.9016.9016,0,0,1-.6.6L7.6,7ZM6.5,2.8V2.5a.3674.3674,0,0,0-.1-.3.7688.7688,0,0,0-.2-.3c-.1,0-.2-.1-.3,0H5.3V3.7h.6a.3674.3674,0,0,0,.3-.1c.1,0,.1-.1.2-.2,0-.1.1-.2.1-.3Z" fill="#b3b3b3"/><path d="M11.3,5.5a1.2683,1.2683,0,0,1-.1.6c-.1.2-.2.3-.3.5A1.5039,1.5039,0,0,1,9.8,7a1.3658,1.3658,0,0,1-1.1-.4c-.2-.2-.3-.3-.3-.5a1.4213,1.4213,0,0,1-.2-.6V1h.9V5.6a.52.52,0,0,0,.2.4.7581.7581,0,0,0,.4.2.52.52,0,0,0,.4-.2.7638.7638,0,0,0,.2-.5V1h.9Z" fill="#b3b3b3"/><path d="M15.2,5.4c0,.2-.1.5-.1.7a.9984.9984,0,0,1-.4.5c-.1.1-.3.2-.4.3a1.2683,1.2683,0,0,1-.6.1,1.7018,1.7018,0,0,1-.7-.1,1.7556,1.7556,0,0,1-.5-.4.52.52,0,0,1-.2-.4.9015.9015,0,0,1-.1-.5c0-.2-.1-.5-.1-.7V3.1a1.7018,1.7018,0,0,1,.1-.7,4.331,4.331,0,0,1,.1-.5c.1-.1.1-.3.2-.4a.9984.9984,0,0,1,.5-.4.8782.8782,0,0,1,.7-.1,1.2683,1.2683,0,0,1,.6.1,1.38,1.38,0,0,1,.4.3.55.55,0,0,1,.3.5,1.7018,1.7018,0,0,1,.1.7h-.9V2.3a.3674.3674,0,0,0-.1-.3c0-.1-.1-.1-.2-.2-.1,0-.2-.1-.3-.1a.3674.3674,0,0,0-.3.1c-.1,0-.1.1-.2.2a1.4453,1.4453,0,0,0-.2.7A4.5123,4.5123,0,0,1,13,4V5.3a1.854,1.854,0,0,0,.2.7c0,.1.1.1.2.2.1,0,.2.1.3.1a.6012.6012,0,0,0,.4-.1.0979.0979,0,0,0,.1-.0958V6.1a.3674.3674,0,0,0,.1-.3V5.5Z" fill="#b3b3b3"/><path d="M18.4,7l-1-2.5-.5.9V7H16V1h.9V3.8L18.2,1h1L18,3.5,19.4,7Z" fill="#b3b3b3"/></svg>